<?xml version="1.0" encoding="utf-8" standalone="no"?>
<!DOCTYPE svg PUBLIC "-//W3C//DTD SVG 1.1//EN"
  "http://www.w3.org/Graphics/SVG/1.1/DTD/svg11.dtd">
<svg xmlns:xlink="http://www.w3.org/1999/xlink" width="648pt" height="648pt" viewBox="0 0 648 648" xmlns="http://www.w3.org/2000/svg" version="1.1">
 <metadata>
  <rdf:RDF xmlns:dc="http://purl.org/dc/elements/1.1/" xmlns:cc="http://creativecommons.org/ns#" xmlns:rdf="http://www.w3.org/1999/02/22-rdf-syntax-ns#">
   <cc:Work>
    <dc:type rdf:resource="http://purl.org/dc/dcmitype/StillImage"/>
    <dc:date>2023-10-04T18:41:01.977920</dc:date>
    <dc:format>image/svg+xml</dc:format>
    <dc:creator>
     <cc:Agent>
      <dc:title>Matplotlib v3.7.2, https://matplotlib.org/</dc:title>
     </cc:Agent>
    </dc:creator>
   </cc:Work>
  </rdf:RDF>
 </metadata>
 <defs>
  <style type="text/css">*{stroke-linejoin: round; stroke-linecap: butt}</style>
 </defs>
 <g id="figure_1">
  <g id="patch_1">
   <path d="M 0 648 
L 648 648 
L 648 0 
L 0 0 
z
" style="fill: #ffffff"/>
  </g>
  <g id="axes_1">
   <g id="patch_2">
    <path d="M 81 576.72 
L 583.2 576.72 
L 583.2 77.76 
L 81 77.76 
z
" style="fill: #ffffff"/>
   </g>
   <g id="patch_3">
    <path d="M 199.115225 130.63801 
Q 165.66529 172.603562 132.912228 213.694832 
" clip-path="url(#p6936113e0a)" style="fill: none; stroke: #000000; stroke-linecap: round"/>
    <path d="M 136.969398 211.813512 
L 132.912228 213.694832 
L 133.841474 209.320303 
z
" clip-path="url(#p6936113e0a)" style="stroke: #000000; stroke-linecap: round"/>
   </g>
   <g id="patch_4">
    <path d="M 214.465824 130.575089 
Q 248.537392 172.606001 281.904914 213.768399 
" clip-path="url(#p6936113e0a)" style="fill: none; stroke: #000000; stroke-linecap: round"/>
    <path d="M 280.939691 209.401667 
L 281.904914 213.768399 
L 277.832395 211.920538 
z
" clip-path="url(#p6936113e0a)" style="stroke: #000000; stroke-linecap: round"/>
   </g>
   <g id="patch_5">
    <path d="M 282.605125 233.665998 
Q 248.533557 275.696911 215.166035 316.859308 
" clip-path="url(#p6936113e0a)" style="fill: none; stroke: #000000; stroke-linecap: round"/>
    <path d="M 219.238554 315.011447 
L 215.166035 316.859308 
L 216.131258 312.492576 
z
" clip-path="url(#p6936113e0a)" style="stroke: #000000; stroke-linecap: round"/>
   </g>
   <g id="patch_6">
    <path d="M 298.11086 233.603076 
Q 332.800106 275.696542 366.778316 316.927207 
" clip-path="url(#p6936113e0a)" style="fill: none; stroke: #000000; stroke-linecap: round"/>
    <path d="M 365.777865 312.568411 
L 366.778316 316.927207 
L 362.691009 315.11229 
z
" clip-path="url(#p6936113e0a)" style="stroke: #000000; stroke-linecap: round"/>
   </g>
   <g id="patch_7">
    <path d="M 366.342132 335.611732 
Q 320.265028 378.784287 275.00379 421.192405 
" clip-path="url(#p6936113e0a)" style="fill: none; stroke: #000000; stroke-linecap: round"/>
    <path d="M 279.290186 419.916939 
L 275.00379 421.192405 
L 276.555255 416.998009 
z
" clip-path="url(#p6936113e0a)" style="stroke: #000000; stroke-linecap: round"/>
   </g>
   <g id="patch_8">
    <path d="M 384.212057 335.611732 
Q 430.28916 378.784287 475.550398 421.192405 
" clip-path="url(#p6936113e0a)" style="fill: none; stroke: #000000; stroke-linecap: round"/>
    <path d="M 473.998933 416.998009 
L 475.550398 421.192405 
L 471.264002 419.916939 
z
" clip-path="url(#p6936113e0a)" style="stroke: #000000; stroke-linecap: round"/>
   </g>
   <g id="patch_9">
    <path d="M 479.480793 441.10625 
Q 457.449048 481.876048 435.948836 521.662244 
" clip-path="url(#p6936113e0a)" style="fill: none; stroke: #000000; stroke-linecap: round"/>
    <path d="M 439.610026 519.094036 
L 435.948836 521.662244 
L 436.090984 517.192368 
z
" clip-path="url(#p6936113e0a)" style="stroke: #000000; stroke-linecap: round"/>
   </g>
   <g id="patch_10">
    <path d="M 491.014226 441.169171 
Q 512.462735 481.877397 533.390084 521.596486 
" clip-path="url(#p6936113e0a)" style="fill: none; stroke: #000000; stroke-linecap: round"/>
    <path d="M 533.294946 517.125362 
L 533.390084 521.596486 
L 529.756102 518.989922 
z
" clip-path="url(#p6936113e0a)" style="stroke: #000000; stroke-linecap: round"/>
   </g>
   <g id="text_1">
    <g id="patch_11">
     <path d="M 165.177514 185.792181 
L 178.412945 169.187301 
Q 180.282851 166.841357 177.936908 164.971451 
L 170.368797 158.939055 
Q 168.022854 157.069149 166.152947 159.415092 
L 152.917516 176.019972 
Q 151.04761 178.365915 153.393553 180.235822 
L 160.961664 186.268218 
Q 163.307608 188.138124 165.177514 185.792181 
z
" clip-path="url(#p6936113e0a)" style="fill: #ffffff; stroke: #ffffff; stroke-linejoin: miter"/>
    </g>
    <g clip-path="url(#p6936113e0a)">
     <!-- True -->
     <g transform="translate(161.205294 182.626001) rotate(-51.442324) scale(0.1 -0.1)">
      <defs>
       <path id="DejaVuSans-54" d="M -19 4666 
L 3928 4666 
L 3928 4134 
L 2272 4134 
L 2272 0 
L 1638 0 
L 1638 4134 
L -19 4134 
L -19 4666 
z
" transform="scale(0.015625)"/>
       <path id="DejaVuSans-72" d="M 2631 2963 
Q 2534 3019 2420 3045 
Q 2306 3072 2169 3072 
Q 1681 3072 1420 2755 
Q 1159 2438 1159 1844 
L 1159 0 
L 581 0 
L 581 3500 
L 1159 3500 
L 1159 2956 
Q 1341 3275 1631 3429 
Q 1922 3584 2338 3584 
Q 2397 3584 2469 3576 
Q 2541 3569 2628 3553 
L 2631 2963 
z
" transform="scale(0.015625)"/>
       <path id="DejaVuSans-75" d="M 544 1381 
L 544 3500 
L 1119 3500 
L 1119 1403 
Q 1119 906 1312 657 
Q 1506 409 1894 409 
Q 2359 409 2629 706 
Q 2900 1003 2900 1516 
L 2900 3500 
L 3475 3500 
L 3475 0 
L 2900 0 
L 2900 538 
Q 2691 219 2414 64 
Q 2138 -91 1772 -91 
Q 1169 -91 856 284 
Q 544 659 544 1381 
z
M 1991 3584 
L 1991 3584 
z
" transform="scale(0.015625)"/>
       <path id="DejaVuSans-65" d="M 3597 1894 
L 3597 1613 
L 953 1613 
Q 991 1019 1311 708 
Q 1631 397 2203 397 
Q 2534 397 2845 478 
Q 3156 559 3463 722 
L 3463 178 
Q 3153 47 2828 -22 
Q 2503 -91 2169 -91 
Q 1331 -91 842 396 
Q 353 884 353 1716 
Q 353 2575 817 3079 
Q 1281 3584 2069 3584 
Q 2775 3584 3186 3129 
Q 3597 2675 3597 1894 
z
M 3022 2063 
Q 3016 2534 2758 2815 
Q 2500 3097 2075 3097 
Q 1594 3097 1305 2825 
Q 1016 2553 972 2059 
L 3022 2063 
z
" transform="scale(0.015625)"/>
      </defs>
      <use xlink:href="#DejaVuSans-54"/>
      <use xlink:href="#DejaVuSans-72" x="46.333984"/>
      <use xlink:href="#DejaVuSans-75" x="87.447266"/>
      <use xlink:href="#DejaVuSans-65" x="150.826172"/>
     </g>
    </g>
   </g>
   <g id="text_2">
    <g id="patch_12">
     <path d="M 234.540485 167.787857 
L 250.35132 187.292209 
Q 252.240473 189.622681 254.570945 187.733528 
L 262.089145 181.639041 
Q 264.419617 179.749887 262.530464 177.419415 
L 246.719629 157.915064 
Q 244.830475 155.584592 242.500003 157.473745 
L 234.981803 163.568232 
Q 232.651331 165.457385 234.540485 167.787857 
z
" clip-path="url(#p6936113e0a)" style="fill: #ffffff; stroke: #ffffff; stroke-linejoin: miter"/>
    </g>
    <g clip-path="url(#p6936113e0a)">
     <!-- False -->
     <g transform="translate(238.486508 164.589088) rotate(-309.029302) scale(0.1 -0.1)">
      <defs>
       <path id="DejaVuSans-46" d="M 628 4666 
L 3309 4666 
L 3309 4134 
L 1259 4134 
L 1259 2759 
L 3109 2759 
L 3109 2228 
L 1259 2228 
L 1259 0 
L 628 0 
L 628 4666 
z
" transform="scale(0.015625)"/>
       <path id="DejaVuSans-61" d="M 2194 1759 
Q 1497 1759 1228 1600 
Q 959 1441 959 1056 
Q 959 750 1161 570 
Q 1363 391 1709 391 
Q 2188 391 2477 730 
Q 2766 1069 2766 1631 
L 2766 1759 
L 2194 1759 
z
M 3341 1997 
L 3341 0 
L 2766 0 
L 2766 531 
Q 2569 213 2275 61 
Q 1981 -91 1556 -91 
Q 1019 -91 701 211 
Q 384 513 384 1019 
Q 384 1609 779 1909 
Q 1175 2209 1959 2209 
L 2766 2209 
L 2766 2266 
Q 2766 2663 2505 2880 
Q 2244 3097 1772 3097 
Q 1472 3097 1187 3025 
Q 903 2953 641 2809 
L 641 3341 
Q 956 3463 1253 3523 
Q 1550 3584 1831 3584 
Q 2591 3584 2966 3190 
Q 3341 2797 3341 1997 
z
" transform="scale(0.015625)"/>
       <path id="DejaVuSans-6c" d="M 603 4863 
L 1178 4863 
L 1178 0 
L 603 0 
L 603 4863 
z
" transform="scale(0.015625)"/>
       <path id="DejaVuSans-73" d="M 2834 3397 
L 2834 2853 
Q 2591 2978 2328 3040 
Q 2066 3103 1784 3103 
Q 1356 3103 1142 2972 
Q 928 2841 928 2578 
Q 928 2378 1081 2264 
Q 1234 2150 1697 2047 
L 1894 2003 
Q 2506 1872 2764 1633 
Q 3022 1394 3022 966 
Q 3022 478 2636 193 
Q 2250 -91 1575 -91 
Q 1294 -91 989 -36 
Q 684 19 347 128 
L 347 722 
Q 666 556 975 473 
Q 1284 391 1588 391 
Q 1994 391 2212 530 
Q 2431 669 2431 922 
Q 2431 1156 2273 1281 
Q 2116 1406 1581 1522 
L 1381 1569 
Q 847 1681 609 1914 
Q 372 2147 372 2553 
Q 372 3047 722 3315 
Q 1072 3584 1716 3584 
Q 2034 3584 2315 3537 
Q 2597 3491 2834 3397 
z
" transform="scale(0.015625)"/>
      </defs>
      <use xlink:href="#DejaVuSans-46"/>
      <use xlink:href="#DejaVuSans-61" x="48.394531"/>
      <use xlink:href="#DejaVuSans-6c" x="109.673828"/>
      <use xlink:href="#DejaVuSans-73" x="137.457031"/>
      <use xlink:href="#DejaVuSans-65" x="189.556641"/>
     </g>
    </g>
   </g>
   <g id="text_3">
    <g id="patch_13">
     <path d="M 247.939215 288.878629 
L 261.310878 272.383256 
Q 263.200031 270.052784 260.869559 268.163631 
L 253.351359 262.069144 
Q 251.020887 260.17999 249.131734 262.510462 
L 235.760071 279.005835 
Q 233.870918 281.336307 236.20139 283.22546 
L 243.71959 289.319947 
Q 246.050062 291.209101 247.939215 288.878629 
z
" clip-path="url(#p6936113e0a)" style="fill: #ffffff; stroke: #ffffff; stroke-linejoin: miter"/>
    </g>
    <g clip-path="url(#p6936113e0a)">
     <!-- True -->
     <g transform="translate(243.993192 285.679859) rotate(-50.970698) scale(0.1 -0.1)">
      <use xlink:href="#DejaVuSans-54"/>
      <use xlink:href="#DejaVuSans-72" x="46.333984"/>
      <use xlink:href="#DejaVuSans-75" x="87.447266"/>
      <use xlink:href="#DejaVuSans-65" x="150.826172"/>
     </g>
    </g>
   </g>
   <g id="text_4">
    <g id="patch_14">
     <path d="M 318.765041 270.991928 
L 334.732852 290.367977 
Q 336.640761 292.683119 338.955903 290.775209 
L 346.424647 284.620214 
Q 348.739789 282.712304 346.831879 280.397163 
L 330.864068 261.021114 
Q 328.956159 258.705972 326.641017 260.613882 
L 319.172273 266.768877 
Q 316.857131 268.676786 318.765041 270.991928 
z
" clip-path="url(#p6936113e0a)" style="fill: #ffffff; stroke: #ffffff; stroke-linejoin: miter"/>
    </g>
    <g clip-path="url(#p6936113e0a)">
     <!-- False -->
     <g transform="translate(322.685107 267.7614) rotate(-309.491951) scale(0.1 -0.1)">
      <use xlink:href="#DejaVuSans-46"/>
      <use xlink:href="#DejaVuSans-61" x="48.394531"/>
      <use xlink:href="#DejaVuSans-6c" x="109.673828"/>
      <use xlink:href="#DejaVuSans-73" x="137.457031"/>
      <use xlink:href="#DejaVuSans-65" x="189.556641"/>
     </g>
    </g>
   </g>
   <g id="text_5">
    <g id="patch_15">
     <path d="M 317.875897 391.765192 
L 333.371312 377.246556 
Q 335.56051 375.195358 333.509312 373.00616 
L 326.892062 365.943717 
Q 324.840864 363.754519 322.651666 365.805717 
L 307.156251 380.324353 
Q 304.967053 382.375551 307.018251 384.564749 
L 313.635501 391.627192 
Q 315.686699 393.81639 317.875897 391.765192 
z
" clip-path="url(#p6936113e0a)" style="fill: #ffffff; stroke: #ffffff; stroke-linejoin: miter"/>
    </g>
    <g clip-path="url(#p6936113e0a)">
     <!-- True -->
     <g transform="translate(314.402748 388.058378) rotate(-43.136019) scale(0.1 -0.1)">
      <use xlink:href="#DejaVuSans-54"/>
      <use xlink:href="#DejaVuSans-72" x="46.333984"/>
      <use xlink:href="#DejaVuSans-75" x="87.447266"/>
      <use xlink:href="#DejaVuSans-65" x="150.826172"/>
     </g>
    </g>
   </g>
   <g id="text_6">
    <g id="patch_16">
     <path d="M 415.769589 375.922358 
L 434.091578 393.08939 
Q 436.280776 395.140588 438.331974 392.95139 
L 444.949224 385.888947 
Q 447.000422 383.699749 444.811224 381.648551 
L 426.489235 364.48152 
Q 424.300037 362.430322 422.248839 364.619519 
L 415.631589 371.681963 
Q 413.580391 373.87116 415.769589 375.922358 
z
" clip-path="url(#p6936113e0a)" style="fill: #ffffff; stroke: #ffffff; stroke-linejoin: miter"/>
    </g>
    <g clip-path="url(#p6936113e0a)">
     <!-- False -->
     <g transform="translate(419.242737 372.215545) rotate(-316.863981) scale(0.1 -0.1)">
      <use xlink:href="#DejaVuSans-46"/>
      <use xlink:href="#DejaVuSans-61" x="48.394531"/>
      <use xlink:href="#DejaVuSans-6c" x="109.673828"/>
      <use xlink:href="#DejaVuSans-73" x="137.457031"/>
      <use xlink:href="#DejaVuSans-65" x="189.556641"/>
     </g>
    </g>
   </g>
   <g id="text_7">
    <g id="patch_17">
     <path d="M 459.297783 494.94377 
L 469.392968 476.262606 
Q 470.819219 473.623324 468.179938 472.197073 
L 459.665505 467.595927 
Q 457.026224 466.169675 455.599972 468.808957 
L 445.504787 487.490122 
Q 444.078536 490.129403 446.717818 491.555655 
L 455.23225 496.156801 
Q 457.871532 497.583052 459.297783 494.94377 
z
" clip-path="url(#p6936113e0a)" style="fill: #ffffff; stroke: #ffffff; stroke-linejoin: miter"/>
    </g>
    <g clip-path="url(#p6936113e0a)">
     <!-- True -->
     <g transform="translate(454.828874 492.5288) rotate(-61.613489) scale(0.1 -0.1)">
      <use xlink:href="#DejaVuSans-54"/>
      <use xlink:href="#DejaVuSans-72" x="46.333984"/>
      <use xlink:href="#DejaVuSans-75" x="87.447266"/>
      <use xlink:href="#DejaVuSans-65" x="150.826172"/>
     </g>
    </g>
   </g>
   <g id="text_8">
    <g id="patch_18">
     <path d="M 499.675008 474.423885 
L 511.378763 496.637043 
Q 512.777183 499.291176 515.431316 497.892756 
L 523.99366 493.381395 
Q 526.647793 491.982975 525.249373 489.328842 
L 513.545617 467.115684 
Q 512.147197 464.461552 509.493064 465.859972 
L 500.930721 470.371333 
Q 498.276588 471.769753 499.675008 474.423885 
z
" clip-path="url(#p6936113e0a)" style="fill: #ffffff; stroke: #ffffff; stroke-linejoin: miter"/>
    </g>
    <g clip-path="url(#p6936113e0a)">
     <!-- False -->
     <g transform="translate(504.169063 472.05604) rotate(-297.784025) scale(0.1 -0.1)">
      <use xlink:href="#DejaVuSans-46"/>
      <use xlink:href="#DejaVuSans-61" x="48.394531"/>
      <use xlink:href="#DejaVuSans-6c" x="109.673828"/>
      <use xlink:href="#DejaVuSans-73" x="137.457031"/>
      <use xlink:href="#DejaVuSans-65" x="189.556641"/>
     </g>
    </g>
   </g>
   <g id="matplotlib.axis_1">
    <g id="xtick_1"/>
    <g id="xtick_2"/>
    <g id="xtick_3"/>
    <g id="xtick_4"/>
    <g id="xtick_5"/>
    <g id="xtick_6"/>
    <g id="xtick_7"/>
   </g>
   <g id="matplotlib.axis_2">
    <g id="ytick_1"/>
    <g id="ytick_2"/>
    <g id="ytick_3"/>
    <g id="ytick_4"/>
    <g id="ytick_5"/>
    <g id="ytick_6"/>
    <g id="ytick_7"/>
   </g>
   <g id="PathCollection_1">
    <defs>
     <path id="m1fb3794c54" d="M -8.660254 8.660254 
L 8.660254 8.660254 
L 8.660254 -8.660254 
L -8.660254 -8.660254 
z
" style="stroke: #90ee90"/>
    </defs>
    <g clip-path="url(#p6936113e0a)">
     <use xlink:href="#m1fb3794c54" x="206.751122" y="121.058182" style="fill: #90ee90; stroke: #90ee90"/>
     <use xlink:href="#m1fb3794c54" x="124.579339" y="224.149091" style="fill: #90ee90; stroke: #90ee90"/>
     <use xlink:href="#m1fb3794c54" x="290.319826" y="224.149091" style="fill: #90ee90; stroke: #90ee90"/>
     <use xlink:href="#m1fb3794c54" x="206.751122" y="327.24" style="fill: #90ee90; stroke: #90ee90"/>
     <use xlink:href="#m1fb3794c54" x="375.277094" y="327.24" style="fill: #90ee90; stroke: #90ee90"/>
     <use xlink:href="#m1fb3794c54" x="265.250469" y="430.330909" style="fill: #90ee90; stroke: #90ee90"/>
     <use xlink:href="#m1fb3794c54" x="485.303719" y="430.330909" style="fill: #90ee90; stroke: #90ee90"/>
     <use xlink:href="#m1fb3794c54" x="429.594036" y="533.421818" style="fill: #90ee90; stroke: #90ee90"/>
     <use xlink:href="#m1fb3794c54" x="539.620661" y="533.421818" style="fill: #90ee90; stroke: #90ee90"/>
    </g>
   </g>
   <g id="patch_19">
    <path d="M 81 576.72 
L 81 77.76 
" style="fill: none; stroke: #000000; stroke-width: 0.8; stroke-linejoin: miter; stroke-linecap: square"/>
   </g>
   <g id="patch_20">
    <path d="M 583.2 576.72 
L 583.2 77.76 
" style="fill: none; stroke: #000000; stroke-width: 0.8; stroke-linejoin: miter; stroke-linecap: square"/>
   </g>
   <g id="patch_21">
    <path d="M 81 576.72 
L 583.2 576.72 
" style="fill: none; stroke: #000000; stroke-width: 0.8; stroke-linejoin: miter; stroke-linecap: square"/>
   </g>
   <g id="patch_22">
    <path d="M 81 77.76 
L 583.2 77.76 
" style="fill: none; stroke: #000000; stroke-width: 0.8; stroke-linejoin: miter; stroke-linecap: square"/>
   </g>
   <g id="text_9">
    <g id="patch_23">
     <path d="M 170.281435 131.023807 
L 243.22081 131.023807 
L 243.22081 111.092557 
L 170.281435 111.092557 
z
" clip-path="url(#p6936113e0a)" style="fill: #87ceeb; stroke: #000000; stroke-linejoin: miter"/>
    </g>
    <g clip-path="url(#p6936113e0a)">
     <!-- total_f&lt;2 -->
     <g transform="translate(174.241435 124.234432) scale(0.12 -0.12)">
      <defs>
       <path id="DejaVuSansMono-74" d="M 1919 4494 
L 1919 3500 
L 3225 3500 
L 3225 3053 
L 1919 3053 
L 1919 1153 
Q 1919 766 2066 612 
Q 2213 459 2578 459 
L 3225 459 
L 3225 0 
L 2522 0 
Q 1875 0 1609 259 
Q 1344 519 1344 1153 
L 1344 3053 
L 409 3053 
L 409 3500 
L 1344 3500 
L 1344 4494 
L 1919 4494 
z
" transform="scale(0.015625)"/>
       <path id="DejaVuSansMono-6f" d="M 1925 3097 
Q 1488 3097 1263 2756 
Q 1038 2416 1038 1747 
Q 1038 1081 1263 739 
Q 1488 397 1925 397 
Q 2366 397 2591 739 
Q 2816 1081 2816 1747 
Q 2816 2416 2591 2756 
Q 2366 3097 1925 3097 
z
M 1925 3584 
Q 2653 3584 3039 3112 
Q 3425 2641 3425 1747 
Q 3425 850 3040 379 
Q 2656 -91 1925 -91 
Q 1197 -91 812 379 
Q 428 850 428 1747 
Q 428 2641 812 3112 
Q 1197 3584 1925 3584 
z
" transform="scale(0.015625)"/>
       <path id="DejaVuSansMono-61" d="M 2194 1759 
L 2003 1759 
Q 1500 1759 1245 1582 
Q 991 1406 991 1056 
Q 991 741 1181 566 
Q 1372 391 1709 391 
Q 2184 391 2456 720 
Q 2728 1050 2731 1631 
L 2731 1759 
L 2194 1759 
z
M 3309 1997 
L 3309 0 
L 2731 0 
L 2731 519 
Q 2547 206 2267 57 
Q 1988 -91 1588 -91 
Q 1053 -91 734 211 
Q 416 513 416 1019 
Q 416 1603 808 1906 
Q 1200 2209 1959 2209 
L 2731 2209 
L 2731 2300 
Q 2728 2719 2518 2908 
Q 2309 3097 1850 3097 
Q 1556 3097 1256 3012 
Q 956 2928 672 2766 
L 672 3341 
Q 991 3463 1283 3523 
Q 1575 3584 1850 3584 
Q 2284 3584 2592 3456 
Q 2900 3328 3091 3072 
Q 3209 2916 3259 2686 
Q 3309 2456 3309 1997 
z
" transform="scale(0.015625)"/>
       <path id="DejaVuSansMono-6c" d="M 1997 1269 
Q 1997 881 2139 684 
Q 2281 488 2559 488 
L 3231 488 
L 3231 0 
L 2503 0 
Q 1988 0 1705 331 
Q 1422 663 1422 1269 
L 1422 4447 
L 500 4447 
L 500 4897 
L 1997 4897 
L 1997 1269 
z
" transform="scale(0.015625)"/>
       <path id="DejaVuSansMono-5f" d="M 3853 -1259 
L 3853 -1509 
L 0 -1509 
L 0 -1259 
L 3853 -1259 
z
" transform="scale(0.015625)"/>
       <path id="DejaVuSansMono-66" d="M 3322 4863 
L 3322 4384 
L 2669 4384 
Q 2359 4384 2239 4257 
Q 2119 4131 2119 3809 
L 2119 3500 
L 3322 3500 
L 3322 3053 
L 2119 3053 
L 2119 0 
L 1544 0 
L 1544 3053 
L 609 3053 
L 609 3500 
L 1544 3500 
L 1544 3744 
Q 1544 4319 1808 4591 
Q 2072 4863 2631 4863 
L 3322 4863 
z
" transform="scale(0.015625)"/>
       <path id="DejaVuSansMono-3c" d="M 3578 3003 
L 922 2003 
L 3578 1013 
L 3578 441 
L 275 1747 
L 275 2266 
L 3578 3572 
L 3578 3003 
z
" transform="scale(0.015625)"/>
       <path id="DejaVuSansMono-32" d="M 1166 531 
L 3309 531 
L 3309 0 
L 475 0 
L 475 531 
Q 1059 1147 1496 1619 
Q 1934 2091 2100 2284 
Q 2413 2666 2522 2902 
Q 2631 3138 2631 3384 
Q 2631 3775 2401 3997 
Q 2172 4219 1772 4219 
Q 1488 4219 1175 4116 
Q 863 4013 513 3803 
L 513 4441 
Q 834 4594 1145 4672 
Q 1456 4750 1759 4750 
Q 2444 4750 2861 4386 
Q 3278 4022 3278 3431 
Q 3278 3131 3139 2831 
Q 3000 2531 2688 2169 
Q 2513 1966 2180 1606 
Q 1847 1247 1166 531 
z
" transform="scale(0.015625)"/>
      </defs>
      <use xlink:href="#DejaVuSansMono-74"/>
      <use xlink:href="#DejaVuSansMono-6f" x="60.205078"/>
      <use xlink:href="#DejaVuSansMono-74" x="120.410156"/>
      <use xlink:href="#DejaVuSansMono-61" x="180.615234"/>
      <use xlink:href="#DejaVuSansMono-6c" x="240.820312"/>
      <use xlink:href="#DejaVuSansMono-5f" x="301.025391"/>
      <use xlink:href="#DejaVuSansMono-66" x="361.230469"/>
      <use xlink:href="#DejaVuSansMono-3c" x="421.435547"/>
      <use xlink:href="#DejaVuSansMono-32" x="481.640625"/>
     </g>
    </g>
   </g>
   <g id="text_10">
    <g id="patch_24">
     <path d="M 113.394964 233.947841 
L 135.763714 233.947841 
L 135.763714 214.350341 
L 113.394964 214.350341 
z
" clip-path="url(#p6936113e0a)" style="fill: #87ceeb; stroke: #000000; stroke-linejoin: miter"/>
    </g>
    <g clip-path="url(#p6936113e0a)">
     <!-- NO -->
     <g transform="translate(117.354964 227.492216) scale(0.12 -0.12)">
      <defs>
       <path id="DejaVuSansMono-4e" d="M 434 4666 
L 1234 4666 
L 2809 825 
L 2809 4666 
L 3419 4666 
L 3419 0 
L 2619 0 
L 1044 3841 
L 1044 0 
L 434 0 
L 434 4666 
z
" transform="scale(0.015625)"/>
       <path id="DejaVuSansMono-4f" d="M 2828 2328 
Q 2828 3356 2617 3797 
Q 2406 4238 1925 4238 
Q 1447 4238 1236 3797 
Q 1025 3356 1025 2328 
Q 1025 1303 1236 862 
Q 1447 422 1925 422 
Q 2406 422 2617 861 
Q 2828 1300 2828 2328 
z
M 3488 2328 
Q 3488 1109 3102 509 
Q 2716 -91 1925 -91 
Q 1134 -91 750 506 
Q 366 1103 366 2328 
Q 366 3550 752 4150 
Q 1138 4750 1925 4750 
Q 2716 4750 3102 4150 
Q 3488 3550 3488 2328 
z
" transform="scale(0.015625)"/>
      </defs>
      <use xlink:href="#DejaVuSansMono-4e"/>
      <use xlink:href="#DejaVuSansMono-4f" x="60.205078"/>
     </g>
    </g>
   </g>
   <g id="text_11">
    <g id="patch_25">
     <path d="M 253.850139 234.082841 
L 326.789514 234.082841 
L 326.789514 214.215341 
L 253.850139 214.215341 
z
" clip-path="url(#p6936113e0a)" style="fill: #87ceeb; stroke: #000000; stroke-linejoin: miter"/>
    </g>
    <g clip-path="url(#p6936113e0a)">
     <!-- named_f&lt;2 -->
     <g transform="translate(257.810139 227.293466) scale(0.12 -0.12)">
      <defs>
       <path id="DejaVuSansMono-6e" d="M 3284 2169 
L 3284 0 
L 2706 0 
L 2706 2169 
Q 2706 2641 2540 2862 
Q 2375 3084 2022 3084 
Q 1619 3084 1401 2798 
Q 1184 2513 1184 1978 
L 1184 0 
L 609 0 
L 609 3500 
L 1184 3500 
L 1184 2975 
Q 1338 3275 1600 3429 
Q 1863 3584 2222 3584 
Q 2756 3584 3020 3232 
Q 3284 2881 3284 2169 
z
" transform="scale(0.015625)"/>
       <path id="DejaVuSansMono-6d" d="M 2113 3144 
Q 2219 3369 2383 3476 
Q 2547 3584 2778 3584 
Q 3200 3584 3373 3257 
Q 3547 2931 3547 2028 
L 3547 0 
L 3022 0 
L 3022 2003 
Q 3022 2744 2939 2923 
Q 2856 3103 2638 3103 
Q 2388 3103 2295 2911 
Q 2203 2719 2203 2003 
L 2203 0 
L 1678 0 
L 1678 2003 
Q 1678 2753 1589 2928 
Q 1500 3103 1269 3103 
Q 1041 3103 952 2911 
Q 863 2719 863 2003 
L 863 0 
L 341 0 
L 341 3500 
L 863 3500 
L 863 3200 
Q 966 3388 1120 3486 
Q 1275 3584 1472 3584 
Q 1709 3584 1867 3475 
Q 2025 3366 2113 3144 
z
" transform="scale(0.015625)"/>
       <path id="DejaVuSansMono-65" d="M 3475 1894 
L 3475 1613 
L 984 1613 
L 984 1594 
Q 984 1022 1282 709 
Q 1581 397 2125 397 
Q 2400 397 2700 484 
Q 3000 572 3341 750 
L 3341 178 
Q 3013 44 2708 -23 
Q 2403 -91 2119 -91 
Q 1303 -91 843 398 
Q 384 888 384 1747 
Q 384 2584 834 3084 
Q 1284 3584 2034 3584 
Q 2703 3584 3089 3131 
Q 3475 2678 3475 1894 
z
M 2900 2063 
Q 2888 2569 2661 2833 
Q 2434 3097 2009 3097 
Q 1594 3097 1325 2822 
Q 1056 2547 1006 2059 
L 2900 2063 
z
" transform="scale(0.015625)"/>
       <path id="DejaVuSansMono-64" d="M 2681 3053 
L 2681 4863 
L 3256 4863 
L 3256 0 
L 2681 0 
L 2681 441 
Q 2538 181 2298 45 
Q 2059 -91 1747 -91 
Q 1113 -91 748 401 
Q 384 894 384 1759 
Q 384 2613 750 3098 
Q 1116 3584 1747 3584 
Q 2063 3584 2303 3448 
Q 2544 3313 2681 3053 
z
M 991 1747 
Q 991 1078 1203 737 
Q 1416 397 1831 397 
Q 2247 397 2464 740 
Q 2681 1084 2681 1747 
Q 2681 2413 2464 2755 
Q 2247 3097 1831 3097 
Q 1416 3097 1203 2756 
Q 991 2416 991 1747 
z
" transform="scale(0.015625)"/>
      </defs>
      <use xlink:href="#DejaVuSansMono-6e"/>
      <use xlink:href="#DejaVuSansMono-61" x="60.205078"/>
      <use xlink:href="#DejaVuSansMono-6d" x="120.410156"/>
      <use xlink:href="#DejaVuSansMono-65" x="180.615234"/>
      <use xlink:href="#DejaVuSansMono-64" x="240.820312"/>
      <use xlink:href="#DejaVuSansMono-5f" x="301.025391"/>
      <use xlink:href="#DejaVuSansMono-66" x="361.230469"/>
      <use xlink:href="#DejaVuSansMono-3c" x="421.435547"/>
      <use xlink:href="#DejaVuSansMono-32" x="481.640625"/>
     </g>
    </g>
   </g>
   <g id="text_12">
    <g id="patch_26">
     <path d="M 195.566747 337.03875 
L 217.935497 337.03875 
L 217.935497 317.44125 
L 195.566747 317.44125 
z
" clip-path="url(#p6936113e0a)" style="fill: #87ceeb; stroke: #000000; stroke-linejoin: miter"/>
    </g>
    <g clip-path="url(#p6936113e0a)">
     <!-- NO -->
     <g transform="translate(199.526747 330.583125) scale(0.12 -0.12)">
      <use xlink:href="#DejaVuSansMono-4e"/>
      <use xlink:href="#DejaVuSansMono-4f" x="60.205078"/>
     </g>
    </g>
   </g>
   <g id="text_13">
    <g id="patch_27">
     <path d="M 331.583032 337.17375 
L 418.971157 337.17375 
L 418.971157 317.30625 
L 331.583032 317.30625 
z
" clip-path="url(#p6936113e0a)" style="fill: #87ceeb; stroke: #000000; stroke-linejoin: miter"/>
    </g>
    <g clip-path="url(#p6936113e0a)">
     <!-- screen_2f&lt;1 -->
     <g transform="translate(335.543032 330.384375) scale(0.12 -0.12)">
      <defs>
       <path id="DejaVuSansMono-73" d="M 3041 3378 
L 3041 2816 
Q 2794 2959 2544 3031 
Q 2294 3103 2034 3103 
Q 1644 3103 1451 2976 
Q 1259 2850 1259 2591 
Q 1259 2356 1403 2240 
Q 1547 2125 2119 2016 
L 2350 1972 
Q 2778 1891 2998 1647 
Q 3219 1403 3219 1013 
Q 3219 494 2850 201 
Q 2481 -91 1825 -91 
Q 1566 -91 1281 -36 
Q 997 19 666 128 
L 666 722 
Q 988 556 1281 473 
Q 1575 391 1838 391 
Q 2219 391 2428 545 
Q 2638 700 2638 978 
Q 2638 1378 1872 1531 
L 1847 1538 
L 1631 1581 
Q 1134 1678 906 1908 
Q 678 2138 678 2534 
Q 678 3038 1018 3311 
Q 1359 3584 1991 3584 
Q 2272 3584 2531 3532 
Q 2791 3481 3041 3378 
z
" transform="scale(0.015625)"/>
       <path id="DejaVuSansMono-63" d="M 3316 178 
Q 3084 44 2839 -23 
Q 2594 -91 2338 -91 
Q 1525 -91 1067 396 
Q 609 884 609 1747 
Q 609 2609 1067 3096 
Q 1525 3584 2338 3584 
Q 2591 3584 2831 3518 
Q 3072 3453 3316 3316 
L 3316 2713 
Q 3088 2916 2858 3006 
Q 2628 3097 2338 3097 
Q 1797 3097 1506 2747 
Q 1216 2397 1216 1747 
Q 1216 1100 1508 748 
Q 1800 397 2338 397 
Q 2638 397 2875 489 
Q 3113 581 3316 775 
L 3316 178 
z
" transform="scale(0.015625)"/>
       <path id="DejaVuSansMono-72" d="M 3609 2778 
Q 3425 2922 3234 2987 
Q 3044 3053 2816 3053 
Q 2278 3053 1993 2715 
Q 1709 2378 1709 1741 
L 1709 0 
L 1131 0 
L 1131 3500 
L 1709 3500 
L 1709 2816 
Q 1853 3188 2151 3386 
Q 2450 3584 2859 3584 
Q 3072 3584 3256 3531 
Q 3441 3478 3609 3366 
L 3609 2778 
z
" transform="scale(0.015625)"/>
       <path id="DejaVuSansMono-31" d="M 844 531 
L 1825 531 
L 1825 4097 
L 769 3859 
L 769 4434 
L 1819 4666 
L 2450 4666 
L 2450 531 
L 3419 531 
L 3419 0 
L 844 0 
L 844 531 
z
" transform="scale(0.015625)"/>
      </defs>
      <use xlink:href="#DejaVuSansMono-73"/>
      <use xlink:href="#DejaVuSansMono-63" x="60.205078"/>
      <use xlink:href="#DejaVuSansMono-72" x="120.410156"/>
      <use xlink:href="#DejaVuSansMono-65" x="180.615234"/>
      <use xlink:href="#DejaVuSansMono-65" x="240.820312"/>
      <use xlink:href="#DejaVuSansMono-6e" x="301.025391"/>
      <use xlink:href="#DejaVuSansMono-5f" x="361.230469"/>
      <use xlink:href="#DejaVuSansMono-32" x="421.435547"/>
      <use xlink:href="#DejaVuSansMono-66" x="481.640625"/>
      <use xlink:href="#DejaVuSansMono-3c" x="541.845703"/>
      <use xlink:href="#DejaVuSansMono-31" x="602.050781"/>
     </g>
    </g>
   </g>
   <g id="text_14">
    <g id="patch_28">
     <path d="M 254.066094 440.129659 
L 276.434844 440.129659 
L 276.434844 420.532159 
L 254.066094 420.532159 
z
" clip-path="url(#p6936113e0a)" style="fill: #87ceeb; stroke: #000000; stroke-linejoin: miter"/>
    </g>
    <g clip-path="url(#p6936113e0a)">
     <!-- NO -->
     <g transform="translate(258.026094 433.674034) scale(0.12 -0.12)">
      <use xlink:href="#DejaVuSansMono-4e"/>
      <use xlink:href="#DejaVuSansMono-4f" x="60.205078"/>
     </g>
    </g>
   </g>
   <g id="text_15">
    <g id="patch_29">
     <path d="M 416.324344 440.264659 
L 554.283094 440.264659 
L 554.283094 420.397159 
L 416.324344 420.397159 
z
" clip-path="url(#p6936113e0a)" style="fill: #87ceeb; stroke: #000000; stroke-linejoin: miter"/>
    </g>
    <g clip-path="url(#p6936113e0a)">
     <!-- 2f_not_about_man&lt;1 -->
     <g transform="translate(420.284344 433.475284) scale(0.12 -0.12)">
      <defs>
       <path id="DejaVuSansMono-62" d="M 2869 1747 
Q 2869 2416 2656 2756 
Q 2444 3097 2028 3097 
Q 1609 3097 1393 2755 
Q 1178 2413 1178 1747 
Q 1178 1084 1393 740 
Q 1609 397 2028 397 
Q 2444 397 2656 737 
Q 2869 1078 2869 1747 
z
M 1178 3053 
Q 1316 3309 1558 3446 
Q 1800 3584 2119 3584 
Q 2750 3584 3112 3098 
Q 3475 2613 3475 1759 
Q 3475 894 3111 401 
Q 2747 -91 2113 -91 
Q 1800 -91 1561 45 
Q 1322 181 1178 441 
L 1178 0 
L 603 0 
L 603 4863 
L 1178 4863 
L 1178 3053 
z
" transform="scale(0.015625)"/>
       <path id="DejaVuSansMono-75" d="M 609 1325 
L 609 3494 
L 1184 3494 
L 1184 1325 
Q 1184 853 1351 631 
Q 1519 409 1869 409 
Q 2275 409 2490 695 
Q 2706 981 2706 1516 
L 2706 3494 
L 3284 3494 
L 3284 0 
L 2706 0 
L 2706 525 
Q 2553 222 2289 65 
Q 2025 -91 1672 -91 
Q 1134 -91 871 261 
Q 609 613 609 1325 
z
" transform="scale(0.015625)"/>
      </defs>
      <use xlink:href="#DejaVuSansMono-32"/>
      <use xlink:href="#DejaVuSansMono-66" x="60.205078"/>
      <use xlink:href="#DejaVuSansMono-5f" x="120.410156"/>
      <use xlink:href="#DejaVuSansMono-6e" x="180.615234"/>
      <use xlink:href="#DejaVuSansMono-6f" x="240.820312"/>
      <use xlink:href="#DejaVuSansMono-74" x="301.025391"/>
      <use xlink:href="#DejaVuSansMono-5f" x="361.230469"/>
      <use xlink:href="#DejaVuSansMono-61" x="421.435547"/>
      <use xlink:href="#DejaVuSansMono-62" x="481.640625"/>
      <use xlink:href="#DejaVuSansMono-6f" x="541.845703"/>
      <use xlink:href="#DejaVuSansMono-75" x="602.050781"/>
      <use xlink:href="#DejaVuSansMono-74" x="662.255859"/>
      <use xlink:href="#DejaVuSansMono-5f" x="722.460938"/>
      <use xlink:href="#DejaVuSansMono-6d" x="782.666016"/>
      <use xlink:href="#DejaVuSansMono-61" x="842.871094"/>
      <use xlink:href="#DejaVuSansMono-6e" x="903.076172"/>
      <use xlink:href="#DejaVuSansMono-3c" x="963.28125"/>
      <use xlink:href="#DejaVuSansMono-31" x="1023.486328"/>
     </g>
    </g>
   </g>
   <g id="text_16">
    <g id="patch_30">
     <path d="M 418.409661 543.220568 
L 440.778411 543.220568 
L 440.778411 523.623068 
L 418.409661 523.623068 
z
" clip-path="url(#p6936113e0a)" style="fill: #87ceeb; stroke: #000000; stroke-linejoin: miter"/>
    </g>
    <g clip-path="url(#p6936113e0a)">
     <!-- NO -->
     <g transform="translate(422.369661 536.764943) scale(0.12 -0.12)">
      <use xlink:href="#DejaVuSansMono-4e"/>
      <use xlink:href="#DejaVuSansMono-4f" x="60.205078"/>
     </g>
    </g>
   </g>
   <g id="text_17">
    <g id="patch_31">
     <path d="M 524.824099 543.220568 
L 554.417224 543.220568 
L 554.417224 523.623068 
L 524.824099 523.623068 
z
" clip-path="url(#p6936113e0a)" style="fill: #87ceeb; stroke: #000000; stroke-linejoin: miter"/>
    </g>
    <g clip-path="url(#p6936113e0a)">
     <!-- YES -->
     <g transform="translate(528.784099 536.764943) scale(0.12 -0.12)">
      <defs>
       <path id="DejaVuSansMono-59" d="M 116 4666 
L 788 4666 
L 1925 2606 
L 3059 4666 
L 3738 4666 
L 2241 2094 
L 2241 0 
L 1606 0 
L 1606 2094 
L 116 4666 
z
" transform="scale(0.015625)"/>
       <path id="DejaVuSansMono-45" d="M 616 4666 
L 3384 4666 
L 3384 4134 
L 1247 4134 
L 1247 2753 
L 3291 2753 
L 3291 2222 
L 1247 2222 
L 1247 531 
L 3444 531 
L 3444 0 
L 616 0 
L 616 4666 
z
" transform="scale(0.015625)"/>
       <path id="DejaVuSansMono-53" d="M 3163 4506 
L 3163 3866 
Q 2875 4050 2586 4144 
Q 2297 4238 2003 4238 
Q 1556 4238 1297 4030 
Q 1038 3822 1038 3469 
Q 1038 3159 1208 2996 
Q 1378 2834 1844 2725 
L 2175 2650 
Q 2831 2497 3131 2169 
Q 3431 1841 3431 1275 
Q 3431 609 3018 259 
Q 2606 -91 1819 -91 
Q 1491 -91 1159 -20 
Q 828 50 494 191 
L 494 863 
Q 853 634 1173 528 
Q 1494 422 1819 422 
Q 2297 422 2562 636 
Q 2828 850 2828 1234 
Q 2828 1584 2645 1768 
Q 2463 1953 2009 2053 
L 1672 2131 
Q 1022 2278 728 2575 
Q 434 2872 434 3372 
Q 434 3997 854 4373 
Q 1275 4750 1972 4750 
Q 2241 4750 2537 4689 
Q 2834 4628 3163 4506 
z
" transform="scale(0.015625)"/>
      </defs>
      <use xlink:href="#DejaVuSansMono-59"/>
      <use xlink:href="#DejaVuSansMono-45" x="60.205078"/>
      <use xlink:href="#DejaVuSansMono-53" x="120.410156"/>
     </g>
    </g>
   </g>
  </g>
  <g id="text_18">
   <!-- Does movie X pass the Bechdel Test ? -->
   <g transform="translate(210.346875 22.078125) scale(0.12 -0.12)">
    <defs>
     <path id="DejaVuSans-44" d="M 1259 4147 
L 1259 519 
L 2022 519 
Q 2988 519 3436 956 
Q 3884 1394 3884 2338 
Q 3884 3275 3436 3711 
Q 2988 4147 2022 4147 
L 1259 4147 
z
M 628 4666 
L 1925 4666 
Q 3281 4666 3915 4102 
Q 4550 3538 4550 2338 
Q 4550 1131 3912 565 
Q 3275 0 1925 0 
L 628 0 
L 628 4666 
z
" transform="scale(0.015625)"/>
     <path id="DejaVuSans-6f" d="M 1959 3097 
Q 1497 3097 1228 2736 
Q 959 2375 959 1747 
Q 959 1119 1226 758 
Q 1494 397 1959 397 
Q 2419 397 2687 759 
Q 2956 1122 2956 1747 
Q 2956 2369 2687 2733 
Q 2419 3097 1959 3097 
z
M 1959 3584 
Q 2709 3584 3137 3096 
Q 3566 2609 3566 1747 
Q 3566 888 3137 398 
Q 2709 -91 1959 -91 
Q 1206 -91 779 398 
Q 353 888 353 1747 
Q 353 2609 779 3096 
Q 1206 3584 1959 3584 
z
" transform="scale(0.015625)"/>
     <path id="DejaVuSans-20" transform="scale(0.015625)"/>
     <path id="DejaVuSans-6d" d="M 3328 2828 
Q 3544 3216 3844 3400 
Q 4144 3584 4550 3584 
Q 5097 3584 5394 3201 
Q 5691 2819 5691 2113 
L 5691 0 
L 5113 0 
L 5113 2094 
Q 5113 2597 4934 2840 
Q 4756 3084 4391 3084 
Q 3944 3084 3684 2787 
Q 3425 2491 3425 1978 
L 3425 0 
L 2847 0 
L 2847 2094 
Q 2847 2600 2669 2842 
Q 2491 3084 2119 3084 
Q 1678 3084 1418 2786 
Q 1159 2488 1159 1978 
L 1159 0 
L 581 0 
L 581 3500 
L 1159 3500 
L 1159 2956 
Q 1356 3278 1631 3431 
Q 1906 3584 2284 3584 
Q 2666 3584 2933 3390 
Q 3200 3197 3328 2828 
z
" transform="scale(0.015625)"/>
     <path id="DejaVuSans-76" d="M 191 3500 
L 800 3500 
L 1894 563 
L 2988 3500 
L 3597 3500 
L 2284 0 
L 1503 0 
L 191 3500 
z
" transform="scale(0.015625)"/>
     <path id="DejaVuSans-69" d="M 603 3500 
L 1178 3500 
L 1178 0 
L 603 0 
L 603 3500 
z
M 603 4863 
L 1178 4863 
L 1178 4134 
L 603 4134 
L 603 4863 
z
" transform="scale(0.015625)"/>
     <path id="DejaVuSans-58" d="M 403 4666 
L 1081 4666 
L 2241 2931 
L 3406 4666 
L 4084 4666 
L 2584 2425 
L 4184 0 
L 3506 0 
L 2194 1984 
L 872 0 
L 191 0 
L 1856 2491 
L 403 4666 
z
" transform="scale(0.015625)"/>
     <path id="DejaVuSans-70" d="M 1159 525 
L 1159 -1331 
L 581 -1331 
L 581 3500 
L 1159 3500 
L 1159 2969 
Q 1341 3281 1617 3432 
Q 1894 3584 2278 3584 
Q 2916 3584 3314 3078 
Q 3713 2572 3713 1747 
Q 3713 922 3314 415 
Q 2916 -91 2278 -91 
Q 1894 -91 1617 61 
Q 1341 213 1159 525 
z
M 3116 1747 
Q 3116 2381 2855 2742 
Q 2594 3103 2138 3103 
Q 1681 3103 1420 2742 
Q 1159 2381 1159 1747 
Q 1159 1113 1420 752 
Q 1681 391 2138 391 
Q 2594 391 2855 752 
Q 3116 1113 3116 1747 
z
" transform="scale(0.015625)"/>
     <path id="DejaVuSans-74" d="M 1172 4494 
L 1172 3500 
L 2356 3500 
L 2356 3053 
L 1172 3053 
L 1172 1153 
Q 1172 725 1289 603 
Q 1406 481 1766 481 
L 2356 481 
L 2356 0 
L 1766 0 
Q 1100 0 847 248 
Q 594 497 594 1153 
L 594 3053 
L 172 3053 
L 172 3500 
L 594 3500 
L 594 4494 
L 1172 4494 
z
" transform="scale(0.015625)"/>
     <path id="DejaVuSans-68" d="M 3513 2113 
L 3513 0 
L 2938 0 
L 2938 2094 
Q 2938 2591 2744 2837 
Q 2550 3084 2163 3084 
Q 1697 3084 1428 2787 
Q 1159 2491 1159 1978 
L 1159 0 
L 581 0 
L 581 4863 
L 1159 4863 
L 1159 2956 
Q 1366 3272 1645 3428 
Q 1925 3584 2291 3584 
Q 2894 3584 3203 3211 
Q 3513 2838 3513 2113 
z
" transform="scale(0.015625)"/>
     <path id="DejaVuSans-42" d="M 1259 2228 
L 1259 519 
L 2272 519 
Q 2781 519 3026 730 
Q 3272 941 3272 1375 
Q 3272 1813 3026 2020 
Q 2781 2228 2272 2228 
L 1259 2228 
z
M 1259 4147 
L 1259 2741 
L 2194 2741 
Q 2656 2741 2882 2914 
Q 3109 3088 3109 3444 
Q 3109 3797 2882 3972 
Q 2656 4147 2194 4147 
L 1259 4147 
z
M 628 4666 
L 2241 4666 
Q 2963 4666 3353 4366 
Q 3744 4066 3744 3513 
Q 3744 3084 3544 2831 
Q 3344 2578 2956 2516 
Q 3422 2416 3680 2098 
Q 3938 1781 3938 1306 
Q 3938 681 3513 340 
Q 3088 0 2303 0 
L 628 0 
L 628 4666 
z
" transform="scale(0.015625)"/>
     <path id="DejaVuSans-63" d="M 3122 3366 
L 3122 2828 
Q 2878 2963 2633 3030 
Q 2388 3097 2138 3097 
Q 1578 3097 1268 2742 
Q 959 2388 959 1747 
Q 959 1106 1268 751 
Q 1578 397 2138 397 
Q 2388 397 2633 464 
Q 2878 531 3122 666 
L 3122 134 
Q 2881 22 2623 -34 
Q 2366 -91 2075 -91 
Q 1284 -91 818 406 
Q 353 903 353 1747 
Q 353 2603 823 3093 
Q 1294 3584 2113 3584 
Q 2378 3584 2631 3529 
Q 2884 3475 3122 3366 
z
" transform="scale(0.015625)"/>
     <path id="DejaVuSans-64" d="M 2906 2969 
L 2906 4863 
L 3481 4863 
L 3481 0 
L 2906 0 
L 2906 525 
Q 2725 213 2448 61 
Q 2172 -91 1784 -91 
Q 1150 -91 751 415 
Q 353 922 353 1747 
Q 353 2572 751 3078 
Q 1150 3584 1784 3584 
Q 2172 3584 2448 3432 
Q 2725 3281 2906 2969 
z
M 947 1747 
Q 947 1113 1208 752 
Q 1469 391 1925 391 
Q 2381 391 2643 752 
Q 2906 1113 2906 1747 
Q 2906 2381 2643 2742 
Q 2381 3103 1925 3103 
Q 1469 3103 1208 2742 
Q 947 2381 947 1747 
z
" transform="scale(0.015625)"/>
     <path id="DejaVuSans-3f" d="M 1222 794 
L 1856 794 
L 1856 0 
L 1222 0 
L 1222 794 
z
M 1838 1253 
L 1241 1253 
L 1241 1734 
Q 1241 2050 1328 2253 
Q 1416 2456 1697 2725 
L 1978 3003 
Q 2156 3169 2236 3316 
Q 2316 3463 2316 3616 
Q 2316 3894 2111 4066 
Q 1906 4238 1569 4238 
Q 1322 4238 1042 4128 
Q 763 4019 459 3809 
L 459 4397 
Q 753 4575 1054 4662 
Q 1356 4750 1678 4750 
Q 2253 4750 2601 4447 
Q 2950 4144 2950 3647 
Q 2950 3409 2837 3195 
Q 2725 2981 2444 2713 
L 2169 2444 
Q 2022 2297 1961 2214 
Q 1900 2131 1875 2053 
Q 1856 1988 1847 1894 
Q 1838 1800 1838 1638 
L 1838 1253 
z
" transform="scale(0.015625)"/>
    </defs>
    <use xlink:href="#DejaVuSans-44"/>
    <use xlink:href="#DejaVuSans-6f" x="77.001953"/>
    <use xlink:href="#DejaVuSans-65" x="138.183594"/>
    <use xlink:href="#DejaVuSans-73" x="199.707031"/>
    <use xlink:href="#DejaVuSans-20" x="251.806641"/>
    <use xlink:href="#DejaVuSans-6d" x="283.59375"/>
    <use xlink:href="#DejaVuSans-6f" x="381.005859"/>
    <use xlink:href="#DejaVuSans-76" x="442.1875"/>
    <use xlink:href="#DejaVuSans-69" x="501.367188"/>
    <use xlink:href="#DejaVuSans-65" x="529.150391"/>
    <use xlink:href="#DejaVuSans-20" x="590.673828"/>
    <use xlink:href="#DejaVuSans-58" x="622.460938"/>
    <use xlink:href="#DejaVuSans-20" x="690.966797"/>
    <use xlink:href="#DejaVuSans-70" x="722.753906"/>
    <use xlink:href="#DejaVuSans-61" x="786.230469"/>
    <use xlink:href="#DejaVuSans-73" x="847.509766"/>
    <use xlink:href="#DejaVuSans-73" x="899.609375"/>
    <use xlink:href="#DejaVuSans-20" x="951.708984"/>
    <use xlink:href="#DejaVuSans-74" x="983.496094"/>
    <use xlink:href="#DejaVuSans-68" x="1022.705078"/>
    <use xlink:href="#DejaVuSans-65" x="1086.083984"/>
    <use xlink:href="#DejaVuSans-20" x="1147.607422"/>
    <use xlink:href="#DejaVuSans-42" x="1179.394531"/>
    <use xlink:href="#DejaVuSans-65" x="1247.998047"/>
    <use xlink:href="#DejaVuSans-63" x="1309.521484"/>
    <use xlink:href="#DejaVuSans-68" x="1364.501953"/>
    <use xlink:href="#DejaVuSans-64" x="1427.880859"/>
    <use xlink:href="#DejaVuSans-65" x="1491.357422"/>
    <use xlink:href="#DejaVuSans-6c" x="1552.880859"/>
    <use xlink:href="#DejaVuSans-20" x="1580.664062"/>
    <use xlink:href="#DejaVuSans-54" x="1612.451172"/>
    <use xlink:href="#DejaVuSans-65" x="1656.535156"/>
    <use xlink:href="#DejaVuSans-73" x="1718.058594"/>
    <use xlink:href="#DejaVuSans-74" x="1770.158203"/>
    <use xlink:href="#DejaVuSans-20" x="1809.367188"/>
    <use xlink:href="#DejaVuSans-3f" x="1841.154297"/>
   </g>
  </g>
 </g>
 <defs>
  <clipPath id="p6936113e0a">
   <rect x="81" y="77.76" width="502.2" height="498.96"/>
  </clipPath>
 </defs>
</svg>
