<?xml version="1.0" encoding="utf-8" standalone="no"?>
<!DOCTYPE svg PUBLIC "-//W3C//DTD SVG 1.1//EN"
  "http://www.w3.org/Graphics/SVG/1.1/DTD/svg11.dtd">
<svg xmlns:xlink="http://www.w3.org/1999/xlink" width="648pt" height="648pt" viewBox="0 0 648 648" xmlns="http://www.w3.org/2000/svg" version="1.1">
 <metadata>
  <rdf:RDF xmlns:dc="http://purl.org/dc/elements/1.1/" xmlns:cc="http://creativecommons.org/ns#" xmlns:rdf="http://www.w3.org/1999/02/22-rdf-syntax-ns#">
   <cc:Work>
    <dc:type rdf:resource="http://purl.org/dc/dcmitype/StillImage"/>
    <dc:date>2023-10-04T18:41:01.846133</dc:date>
    <dc:format>image/svg+xml</dc:format>
    <dc:creator>
     <cc:Agent>
      <dc:title>Matplotlib v3.7.2, https://matplotlib.org/</dc:title>
     </cc:Agent>
    </dc:creator>
   </cc:Work>
  </rdf:RDF>
 </metadata>
 <defs>
  <style type="text/css">*{stroke-linejoin: round; stroke-linecap: butt}</style>
 </defs>
 <g id="figure_1">
  <g id="patch_1">
   <path d="M 0 648 
L 648 648 
L 648 0 
L 0 0 
z
" style="fill: #ffffff"/>
  </g>
  <g id="axes_1">
   <g id="patch_2">
    <path d="M 81 576.72 
L 583.2 576.72 
L 583.2 77.76 
L 81 77.76 
z
" style="fill: #ffffff"/>
   </g>
   <g id="patch_3">
    <path d="M 323.021207 131.877568 
Q 274.047236 224.14977 225.597415 315.434417 
" clip-path="url(#p895ea24d34)" style="fill: none; stroke: #000000; stroke-linecap: round"/>
    <path d="M 229.239266 312.838859 
L 225.597415 315.434417 
L 225.70608 310.963601 
z
" clip-path="url(#p895ea24d34)" style="stroke: #000000; stroke-linecap: round"/>
   </g>
   <g id="patch_4">
    <path d="M 334.506103 131.877568 
Q 383.480074 224.14977 431.929895 315.434417 
" clip-path="url(#p895ea24d34)" style="fill: none; stroke: #000000; stroke-linecap: round"/>
    <path d="M 431.82123 310.963601 
L 431.929895 315.434417 
L 428.288043 312.838859 
z
" clip-path="url(#p895ea24d34)" style="stroke: #000000; stroke-linecap: round"/>
   </g>
   <g id="patch_5">
    <path d="M 214.21773 338.367702 
Q 171.955586 430.330587 130.160304 521.277577 
" clip-path="url(#p895ea24d34)" style="fill: none; stroke: #000000; stroke-linecap: round"/>
    <path d="M 133.647883 518.47815 
L 130.160304 521.277577 
L 130.013309 516.807858 
z
" clip-path="url(#p895ea24d34)" style="stroke: #000000; stroke-linecap: round"/>
   </g>
   <g id="patch_6">
    <path d="M 220.826153 339.393326 
Q 232.009643 430.330859 243.056665 520.158718 
" clip-path="url(#p895ea24d34)" style="fill: none; stroke: #000000; stroke-linecap: round"/>
    <path d="M 244.553469 515.944506 
L 243.056665 520.158718 
L 240.583378 516.432748 
z
" clip-path="url(#p895ea24d34)" style="stroke: #000000; stroke-linecap: round"/>
   </g>
   <g id="patch_7">
    <path d="M 436.778355 339.40591 
Q 426.184847 430.331624 415.720722 520.146816 
" clip-path="url(#p895ea24d34)" style="fill: none; stroke: #000000; stroke-linecap: round"/>
    <path d="M 418.170183 516.405139 
L 415.720722 520.146816 
L 414.197058 515.942241 
z
" clip-path="url(#p895ea24d34)" style="stroke: #000000; stroke-linecap: round"/>
   </g>
   <g id="patch_8">
    <path d="M 443.601612 338.229274 
Q 488.908696 430.331884 533.722276 521.431272 
" clip-path="url(#p895ea24d34)" style="fill: none; stroke: #000000; stroke-linecap: round"/>
    <path d="M 533.751278 516.95923 
L 533.722276 521.431272 
L 530.162044 518.724845 
z
" clip-path="url(#p895ea24d34)" style="stroke: #000000; stroke-linecap: round"/>
   </g>
   <g id="text_1">
    <g id="patch_9">
     <path d="M 275.994323 237.202283 
L 285.949305 218.446031 
Q 287.355749 215.796141 284.705859 214.389697 
L 276.157203 209.852452 
Q 273.507313 208.446009 272.10087 211.095899 
L 262.145887 229.852151 
Q 260.739444 232.502041 263.389334 233.908484 
L 271.937989 238.44573 
Q 274.587879 239.852173 275.994323 237.202283 
z
" clip-path="url(#p895ea24d34)" style="fill: #ffffff; stroke: #ffffff; stroke-linejoin: miter"/>
    </g>
    <g clip-path="url(#p895ea24d34)">
     <!-- True -->
     <g transform="translate(271.507452 234.820852) rotate(-62.04263) scale(0.1 -0.1)">
      <defs>
       <path id="DejaVuSans-54" d="M -19 4666 
L 3928 4666 
L 3928 4134 
L 2272 4134 
L 2272 0 
L 1638 0 
L 1638 4134 
L -19 4134 
L -19 4666 
z
" transform="scale(0.015625)"/>
       <path id="DejaVuSans-72" d="M 2631 2963 
Q 2534 3019 2420 3045 
Q 2306 3072 2169 3072 
Q 1681 3072 1420 2755 
Q 1159 2438 1159 1844 
L 1159 0 
L 581 0 
L 581 3500 
L 1159 3500 
L 1159 2956 
Q 1341 3275 1631 3429 
Q 1922 3584 2338 3584 
Q 2397 3584 2469 3576 
Q 2541 3569 2628 3553 
L 2631 2963 
z
" transform="scale(0.015625)"/>
       <path id="DejaVuSans-75" d="M 544 1381 
L 544 3500 
L 1119 3500 
L 1119 1403 
Q 1119 906 1312 657 
Q 1506 409 1894 409 
Q 2359 409 2629 706 
Q 2900 1003 2900 1516 
L 2900 3500 
L 3475 3500 
L 3475 0 
L 2900 0 
L 2900 538 
Q 2691 219 2414 64 
Q 2138 -91 1772 -91 
Q 1169 -91 856 284 
Q 544 659 544 1381 
z
M 1991 3584 
L 1991 3584 
z
" transform="scale(0.015625)"/>
       <path id="DejaVuSans-65" d="M 3597 1894 
L 3597 1613 
L 953 1613 
Q 991 1019 1311 708 
Q 1631 397 2203 397 
Q 2534 397 2845 478 
Q 3156 559 3463 722 
L 3463 178 
Q 3153 47 2828 -22 
Q 2503 -91 2169 -91 
Q 1331 -91 842 396 
Q 353 884 353 1716 
Q 353 2575 817 3079 
Q 1281 3584 2069 3584 
Q 2775 3584 3186 3129 
Q 3597 2675 3597 1894 
z
M 3022 2063 
Q 3016 2534 2758 2815 
Q 2500 3097 2075 3097 
Q 1594 3097 1305 2825 
Q 1016 2553 972 2059 
L 3022 2063 
z
" transform="scale(0.015625)"/>
      </defs>
      <use xlink:href="#DejaVuSans-54"/>
      <use xlink:href="#DejaVuSans-72" x="46.333984"/>
      <use xlink:href="#DejaVuSans-75" x="87.447266"/>
      <use xlink:href="#DejaVuSans-65" x="150.826172"/>
     </g>
    </g>
   </g>
   <g id="text_2">
    <g id="patch_10">
     <path d="M 370.670043 216.735334 
L 382.440949 238.91298 
Q 383.847392 241.56287 386.497282 240.156427 
L 395.045938 235.619182 
Q 397.695828 234.212738 396.289384 231.562848 
L 384.518478 209.385201 
Q 383.112035 206.735312 380.462145 208.141755 
L 371.913489 212.679 
Q 369.263599 214.085444 370.670043 216.735334 
z
" clip-path="url(#p895ea24d34)" style="fill: #ffffff; stroke: #ffffff; stroke-linejoin: miter"/>
    </g>
    <g clip-path="url(#p895ea24d34)">
     <!-- False -->
     <g transform="translate(375.156914 214.353902) rotate(-297.95737) scale(0.1 -0.1)">
      <defs>
       <path id="DejaVuSans-46" d="M 628 4666 
L 3309 4666 
L 3309 4134 
L 1259 4134 
L 1259 2759 
L 3109 2759 
L 3109 2228 
L 1259 2228 
L 1259 0 
L 628 0 
L 628 4666 
z
" transform="scale(0.015625)"/>
       <path id="DejaVuSans-61" d="M 2194 1759 
Q 1497 1759 1228 1600 
Q 959 1441 959 1056 
Q 959 750 1161 570 
Q 1363 391 1709 391 
Q 2188 391 2477 730 
Q 2766 1069 2766 1631 
L 2766 1759 
L 2194 1759 
z
M 3341 1997 
L 3341 0 
L 2766 0 
L 2766 531 
Q 2569 213 2275 61 
Q 1981 -91 1556 -91 
Q 1019 -91 701 211 
Q 384 513 384 1019 
Q 384 1609 779 1909 
Q 1175 2209 1959 2209 
L 2766 2209 
L 2766 2266 
Q 2766 2663 2505 2880 
Q 2244 3097 1772 3097 
Q 1472 3097 1187 3025 
Q 903 2953 641 2809 
L 641 3341 
Q 956 3463 1253 3523 
Q 1550 3584 1831 3584 
Q 2591 3584 2966 3190 
Q 3341 2797 3341 1997 
z
" transform="scale(0.015625)"/>
       <path id="DejaVuSans-6c" d="M 603 4863 
L 1178 4863 
L 1178 0 
L 603 0 
L 603 4863 
z
" transform="scale(0.015625)"/>
       <path id="DejaVuSans-73" d="M 2834 3397 
L 2834 2853 
Q 2591 2978 2328 3040 
Q 2066 3103 1784 3103 
Q 1356 3103 1142 2972 
Q 928 2841 928 2578 
Q 928 2378 1081 2264 
Q 1234 2150 1697 2047 
L 1894 2003 
Q 2506 1872 2764 1633 
Q 3022 1394 3022 966 
Q 3022 478 2636 193 
Q 2250 -91 1575 -91 
Q 1294 -91 989 -36 
Q 684 19 347 128 
L 347 722 
Q 666 556 975 473 
Q 1284 391 1588 391 
Q 1994 391 2212 530 
Q 2431 669 2431 922 
Q 2431 1156 2273 1281 
Q 2116 1406 1581 1522 
L 1381 1569 
Q 847 1681 609 1914 
Q 372 2147 372 2553 
Q 372 3047 722 3315 
Q 1072 3584 1716 3584 
Q 2034 3584 2315 3537 
Q 2597 3491 2834 3397 
z
" transform="scale(0.015625)"/>
      </defs>
      <use xlink:href="#DejaVuSans-46"/>
      <use xlink:href="#DejaVuSans-61" x="48.394531"/>
      <use xlink:href="#DejaVuSans-6c" x="109.673828"/>
      <use xlink:href="#DejaVuSans-73" x="137.457031"/>
      <use xlink:href="#DejaVuSans-65" x="189.556641"/>
     </g>
    </g>
   </g>
   <g id="text_3">
    <g id="patch_11">
     <path d="M 174.6449 443.251527 
L 183.511801 423.957053 
Q 184.76452 421.231123 182.03859 419.978404 
L 173.244626 415.93708 
Q 170.518696 414.684361 169.265977 417.410291 
L 160.399075 436.704765 
Q 159.146356 439.430696 161.872286 440.683415 
L 170.666251 444.724738 
Q 173.392181 445.977457 174.6449 443.251527 
z
" clip-path="url(#p895ea24d34)" style="fill: #ffffff; stroke: #ffffff; stroke-linejoin: miter"/>
    </g>
    <g clip-path="url(#p895ea24d34)">
     <!-- True -->
     <g transform="translate(170.029275 441.130387) rotate(-65.318545) scale(0.1 -0.1)">
      <use xlink:href="#DejaVuSans-54"/>
      <use xlink:href="#DejaVuSans-72" x="46.333984"/>
      <use xlink:href="#DejaVuSans-75" x="87.447266"/>
      <use xlink:href="#DejaVuSans-65" x="150.826172"/>
     </g>
    </g>
   </g>
   <g id="text_4">
    <g id="patch_12">
     <path d="M 222.696867 418.827711 
L 225.761536 443.747784 
Q 226.127717 446.725353 229.105285 446.359171 
L 238.711044 445.177856 
Q 241.688612 444.811675 241.322431 441.834107 
L 238.257762 416.914034 
Q 237.891581 413.936466 234.914013 414.302647 
L 225.308254 415.483962 
Q 222.330686 415.850143 222.696867 418.827711 
z
" clip-path="url(#p895ea24d34)" style="fill: #ffffff; stroke: #ffffff; stroke-linejoin: miter"/>
    </g>
    <g clip-path="url(#p895ea24d34)">
     <!-- False -->
     <g transform="translate(227.738572 418.207683) rotate(-277.011026) scale(0.1 -0.1)">
      <use xlink:href="#DejaVuSans-46"/>
      <use xlink:href="#DejaVuSans-61" x="48.394531"/>
      <use xlink:href="#DejaVuSans-6c" x="109.673828"/>
      <use xlink:href="#DejaVuSans-73" x="137.457031"/>
      <use xlink:href="#DejaVuSans-65" x="189.556641"/>
     </g>
    </g>
   </g>
   <g id="text_5">
    <g id="patch_13">
     <path d="M 432.742656 441.783935 
L 435.199993 420.692226 
Q 435.547167 417.712382 432.567323 417.365209 
L 422.954222 416.245213 
Q 419.974378 415.898039 419.627204 418.877883 
L 417.169867 439.969592 
Q 416.822693 442.949436 419.802537 443.296609 
L 429.415638 444.416606 
Q 432.395482 444.763779 432.742656 441.783935 
z
" clip-path="url(#p895ea24d34)" style="fill: #ffffff; stroke: #ffffff; stroke-linejoin: miter"/>
    </g>
    <g clip-path="url(#p895ea24d34)">
     <!-- True -->
     <g transform="translate(427.697097 441.196091) rotate(-83.354584) scale(0.1 -0.1)">
      <use xlink:href="#DejaVuSans-54"/>
      <use xlink:href="#DejaVuSans-72" x="46.333984"/>
      <use xlink:href="#DejaVuSans-75" x="87.447266"/>
      <use xlink:href="#DejaVuSans-65" x="150.826172"/>
     </g>
    </g>
   </g>
   <g id="text_6">
    <g id="patch_14">
     <path d="M 476.332817 422.526372 
L 487.4155 445.055829 
Q 488.739711 447.747755 491.431637 446.423543 
L 500.115901 442.151583 
Q 502.807827 440.827372 501.483616 438.135446 
L 490.400934 415.605989 
Q 489.076723 412.914064 486.384797 414.238275 
L 477.700532 418.510235 
Q 475.008606 419.834447 476.332817 422.526372 
z
" clip-path="url(#p895ea24d34)" style="fill: #ffffff; stroke: #ffffff; stroke-linejoin: miter"/>
    </g>
    <g clip-path="url(#p895ea24d34)">
     <!-- False -->
     <g transform="translate(480.890865 420.284179) rotate(-296.19348) scale(0.1 -0.1)">
      <use xlink:href="#DejaVuSans-46"/>
      <use xlink:href="#DejaVuSans-61" x="48.394531"/>
      <use xlink:href="#DejaVuSans-6c" x="109.673828"/>
      <use xlink:href="#DejaVuSans-73" x="137.457031"/>
      <use xlink:href="#DejaVuSans-65" x="189.556641"/>
     </g>
    </g>
   </g>
   <g id="matplotlib.axis_1">
    <g id="xtick_1"/>
    <g id="xtick_2"/>
    <g id="xtick_3"/>
    <g id="xtick_4"/>
    <g id="xtick_5"/>
    <g id="xtick_6"/>
    <g id="xtick_7"/>
    <g id="xtick_8"/>
   </g>
   <g id="matplotlib.axis_2">
    <g id="ytick_1"/>
    <g id="ytick_2"/>
    <g id="ytick_3"/>
    <g id="ytick_4"/>
    <g id="ytick_5"/>
    <g id="ytick_6"/>
    <g id="ytick_7"/>
    <g id="ytick_8"/>
   </g>
   <g id="PathCollection_1">
    <defs>
     <path id="m7130b2d80c" d="M -8.660254 8.660254 
L 8.660254 8.660254 
L 8.660254 -8.660254 
L -8.660254 -8.660254 
z
" style="stroke: #90ee90"/>
    </defs>
    <g clip-path="url(#p895ea24d34)">
     <use xlink:href="#m7130b2d80c" x="328.763655" y="121.058182" style="fill: #90ee90; stroke: #90ee90"/>
     <use xlink:href="#m7130b2d80c" x="219.331538" y="327.24" style="fill: #90ee90; stroke: #90ee90"/>
     <use xlink:href="#m7130b2d80c" x="124.579339" y="533.421818" style="fill: #90ee90; stroke: #90ee90"/>
     <use xlink:href="#m7130b2d80c" x="244.68776" y="533.421818" style="fill: #90ee90; stroke: #90ee90"/>
     <use xlink:href="#m7130b2d80c" x="438.195772" y="327.24" style="fill: #90ee90; stroke: #90ee90"/>
     <use xlink:href="#m7130b2d80c" x="414.174088" y="533.421818" style="fill: #90ee90; stroke: #90ee90"/>
     <use xlink:href="#m7130b2d80c" x="539.620661" y="533.421818" style="fill: #90ee90; stroke: #90ee90"/>
    </g>
   </g>
   <g id="patch_15">
    <path d="M 81 576.72 
L 81 77.76 
" style="fill: none; stroke: #000000; stroke-width: 0.8; stroke-linejoin: miter; stroke-linecap: square"/>
   </g>
   <g id="patch_16">
    <path d="M 583.2 576.72 
L 583.2 77.76 
" style="fill: none; stroke: #000000; stroke-width: 0.8; stroke-linejoin: miter; stroke-linecap: square"/>
   </g>
   <g id="patch_17">
    <path d="M 81 576.72 
L 583.2 576.72 
" style="fill: none; stroke: #000000; stroke-width: 0.8; stroke-linejoin: miter; stroke-linecap: square"/>
   </g>
   <g id="patch_18">
    <path d="M 81 77.76 
L 583.2 77.76 
" style="fill: none; stroke: #000000; stroke-width: 0.8; stroke-linejoin: miter; stroke-linecap: square"/>
   </g>
   <g id="text_7">
    <g id="patch_19">
     <path d="M 292.293967 130.898182 
L 365.233342 130.898182 
L 365.233342 111.218182 
L 292.293967 111.218182 
z
" clip-path="url(#p895ea24d34)" style="fill: #87ceeb; stroke: #000000; stroke-linejoin: miter"/>
    </g>
    <g clip-path="url(#p895ea24d34)">
     <!-- length&lt;48 -->
     <g transform="translate(296.253967 124.360057) scale(0.12 -0.12)">
      <defs>
       <path id="DejaVuSansMono-6c" d="M 1997 1269 
Q 1997 881 2139 684 
Q 2281 488 2559 488 
L 3231 488 
L 3231 0 
L 2503 0 
Q 1988 0 1705 331 
Q 1422 663 1422 1269 
L 1422 4447 
L 500 4447 
L 500 4897 
L 1997 4897 
L 1997 1269 
z
" transform="scale(0.015625)"/>
       <path id="DejaVuSansMono-65" d="M 3475 1894 
L 3475 1613 
L 984 1613 
L 984 1594 
Q 984 1022 1282 709 
Q 1581 397 2125 397 
Q 2400 397 2700 484 
Q 3000 572 3341 750 
L 3341 178 
Q 3013 44 2708 -23 
Q 2403 -91 2119 -91 
Q 1303 -91 843 398 
Q 384 888 384 1747 
Q 384 2584 834 3084 
Q 1284 3584 2034 3584 
Q 2703 3584 3089 3131 
Q 3475 2678 3475 1894 
z
M 2900 2063 
Q 2888 2569 2661 2833 
Q 2434 3097 2009 3097 
Q 1594 3097 1325 2822 
Q 1056 2547 1006 2059 
L 2900 2063 
z
" transform="scale(0.015625)"/>
       <path id="DejaVuSansMono-6e" d="M 3284 2169 
L 3284 0 
L 2706 0 
L 2706 2169 
Q 2706 2641 2540 2862 
Q 2375 3084 2022 3084 
Q 1619 3084 1401 2798 
Q 1184 2513 1184 1978 
L 1184 0 
L 609 0 
L 609 3500 
L 1184 3500 
L 1184 2975 
Q 1338 3275 1600 3429 
Q 1863 3584 2222 3584 
Q 2756 3584 3020 3232 
Q 3284 2881 3284 2169 
z
" transform="scale(0.015625)"/>
       <path id="DejaVuSansMono-67" d="M 2681 1778 
Q 2681 2425 2470 2761 
Q 2259 3097 1856 3097 
Q 1434 3097 1212 2761 
Q 991 2425 991 1778 
Q 991 1131 1214 792 
Q 1438 453 1863 453 
Q 2259 453 2470 793 
Q 2681 1134 2681 1778 
z
M 3256 225 
Q 3256 -563 2884 -969 
Q 2513 -1375 1791 -1375 
Q 1553 -1375 1293 -1331 
Q 1034 -1288 775 -1203 
L 775 -634 
Q 1081 -778 1331 -847 
Q 1581 -916 1791 -916 
Q 2256 -916 2468 -662 
Q 2681 -409 2681 141 
L 2681 166 
L 2681 556 
Q 2544 263 2306 119 
Q 2069 -25 1728 -25 
Q 1116 -25 750 465 
Q 384 956 384 1778 
Q 384 2603 750 3093 
Q 1116 3584 1728 3584 
Q 2066 3584 2300 3450 
Q 2534 3316 2681 3034 
L 2681 3488 
L 3256 3488 
L 3256 225 
z
" transform="scale(0.015625)"/>
       <path id="DejaVuSansMono-74" d="M 1919 4494 
L 1919 3500 
L 3225 3500 
L 3225 3053 
L 1919 3053 
L 1919 1153 
Q 1919 766 2066 612 
Q 2213 459 2578 459 
L 3225 459 
L 3225 0 
L 2522 0 
Q 1875 0 1609 259 
Q 1344 519 1344 1153 
L 1344 3053 
L 409 3053 
L 409 3500 
L 1344 3500 
L 1344 4494 
L 1919 4494 
z
" transform="scale(0.015625)"/>
       <path id="DejaVuSansMono-68" d="M 3284 2169 
L 3284 0 
L 2706 0 
L 2706 2169 
Q 2706 2641 2540 2862 
Q 2375 3084 2022 3084 
Q 1619 3084 1401 2798 
Q 1184 2513 1184 1978 
L 1184 0 
L 609 0 
L 609 4863 
L 1184 4863 
L 1184 2975 
Q 1338 3275 1600 3429 
Q 1863 3584 2222 3584 
Q 2756 3584 3020 3232 
Q 3284 2881 3284 2169 
z
" transform="scale(0.015625)"/>
       <path id="DejaVuSansMono-3c" d="M 3578 3003 
L 922 2003 
L 3578 1013 
L 3578 441 
L 275 1747 
L 275 2266 
L 3578 3572 
L 3578 3003 
z
" transform="scale(0.015625)"/>
       <path id="DejaVuSansMono-34" d="M 2297 4091 
L 825 1625 
L 2297 1625 
L 2297 4091 
z
M 2194 4666 
L 2925 4666 
L 2925 1625 
L 3547 1625 
L 3547 1113 
L 2925 1113 
L 2925 0 
L 2297 0 
L 2297 1113 
L 319 1113 
L 319 1709 
L 2194 4666 
z
" transform="scale(0.015625)"/>
       <path id="DejaVuSansMono-38" d="M 1925 2216 
Q 1503 2216 1273 1980 
Q 1044 1744 1044 1313 
Q 1044 881 1276 642 
Q 1509 403 1925 403 
Q 2350 403 2579 639 
Q 2809 875 2809 1313 
Q 2809 1741 2576 1978 
Q 2344 2216 1925 2216 
z
M 1375 2478 
Q 972 2581 745 2862 
Q 519 3144 519 3541 
Q 519 4097 897 4423 
Q 1275 4750 1925 4750 
Q 2578 4750 2956 4423 
Q 3334 4097 3334 3541 
Q 3334 3144 3107 2862 
Q 2881 2581 2478 2478 
Q 2947 2375 3195 2062 
Q 3444 1750 3444 1253 
Q 3444 622 3041 265 
Q 2638 -91 1925 -91 
Q 1213 -91 811 264 
Q 409 619 409 1247 
Q 409 1747 657 2061 
Q 906 2375 1375 2478 
z
M 1147 3481 
Q 1147 3106 1347 2909 
Q 1547 2713 1925 2713 
Q 2306 2713 2506 2909 
Q 2706 3106 2706 3481 
Q 2706 3863 2507 4063 
Q 2309 4263 1925 4263 
Q 1547 4263 1347 4061 
Q 1147 3859 1147 3481 
z
" transform="scale(0.015625)"/>
      </defs>
      <use xlink:href="#DejaVuSansMono-6c"/>
      <use xlink:href="#DejaVuSansMono-65" x="60.205078"/>
      <use xlink:href="#DejaVuSansMono-6e" x="120.410156"/>
      <use xlink:href="#DejaVuSansMono-67" x="180.615234"/>
      <use xlink:href="#DejaVuSansMono-74" x="240.820312"/>
      <use xlink:href="#DejaVuSansMono-68" x="301.025391"/>
      <use xlink:href="#DejaVuSansMono-3c" x="361.230469"/>
      <use xlink:href="#DejaVuSansMono-34" x="421.435547"/>
      <use xlink:href="#DejaVuSansMono-38" x="481.640625"/>
     </g>
    </g>
   </g>
   <g id="text_8">
    <g id="patch_20">
     <path d="M 175.637475 337.03875 
L 263.0256 337.03875 
L 263.0256 317.44125 
L 175.637475 317.44125 
z
" clip-path="url(#p895ea24d34)" style="fill: #87ceeb; stroke: #000000; stroke-linejoin: miter"/>
    </g>
    <g clip-path="url(#p895ea24d34)">
     <!-- value&lt;10000 -->
     <g transform="translate(179.597475 330.583125) scale(0.12 -0.12)">
      <defs>
       <path id="DejaVuSansMono-76" d="M 313 3500 
L 909 3500 
L 1925 563 
L 2944 3500 
L 3541 3500 
L 2297 0 
L 1556 0 
L 313 3500 
z
" transform="scale(0.015625)"/>
       <path id="DejaVuSansMono-61" d="M 2194 1759 
L 2003 1759 
Q 1500 1759 1245 1582 
Q 991 1406 991 1056 
Q 991 741 1181 566 
Q 1372 391 1709 391 
Q 2184 391 2456 720 
Q 2728 1050 2731 1631 
L 2731 1759 
L 2194 1759 
z
M 3309 1997 
L 3309 0 
L 2731 0 
L 2731 519 
Q 2547 206 2267 57 
Q 1988 -91 1588 -91 
Q 1053 -91 734 211 
Q 416 513 416 1019 
Q 416 1603 808 1906 
Q 1200 2209 1959 2209 
L 2731 2209 
L 2731 2300 
Q 2728 2719 2518 2908 
Q 2309 3097 1850 3097 
Q 1556 3097 1256 3012 
Q 956 2928 672 2766 
L 672 3341 
Q 991 3463 1283 3523 
Q 1575 3584 1850 3584 
Q 2284 3584 2592 3456 
Q 2900 3328 3091 3072 
Q 3209 2916 3259 2686 
Q 3309 2456 3309 1997 
z
" transform="scale(0.015625)"/>
       <path id="DejaVuSansMono-75" d="M 609 1325 
L 609 3494 
L 1184 3494 
L 1184 1325 
Q 1184 853 1351 631 
Q 1519 409 1869 409 
Q 2275 409 2490 695 
Q 2706 981 2706 1516 
L 2706 3494 
L 3284 3494 
L 3284 0 
L 2706 0 
L 2706 525 
Q 2553 222 2289 65 
Q 2025 -91 1672 -91 
Q 1134 -91 871 261 
Q 609 613 609 1325 
z
" transform="scale(0.015625)"/>
       <path id="DejaVuSansMono-31" d="M 844 531 
L 1825 531 
L 1825 4097 
L 769 3859 
L 769 4434 
L 1819 4666 
L 2450 4666 
L 2450 531 
L 3419 531 
L 3419 0 
L 844 0 
L 844 531 
z
" transform="scale(0.015625)"/>
       <path id="DejaVuSansMono-30" d="M 1509 2344 
Q 1509 2516 1629 2641 
Q 1750 2766 1919 2766 
Q 2094 2766 2219 2641 
Q 2344 2516 2344 2344 
Q 2344 2169 2220 2047 
Q 2097 1925 1919 1925 
Q 1744 1925 1626 2044 
Q 1509 2163 1509 2344 
z
M 1925 4250 
Q 1484 4250 1267 3775 
Q 1050 3300 1050 2328 
Q 1050 1359 1267 884 
Q 1484 409 1925 409 
Q 2369 409 2586 884 
Q 2803 1359 2803 2328 
Q 2803 3300 2586 3775 
Q 2369 4250 1925 4250 
z
M 1925 4750 
Q 2672 4750 3055 4137 
Q 3438 3525 3438 2328 
Q 3438 1134 3055 521 
Q 2672 -91 1925 -91 
Q 1178 -91 797 521 
Q 416 1134 416 2328 
Q 416 3525 797 4137 
Q 1178 4750 1925 4750 
z
" transform="scale(0.015625)"/>
      </defs>
      <use xlink:href="#DejaVuSansMono-76"/>
      <use xlink:href="#DejaVuSansMono-61" x="60.205078"/>
      <use xlink:href="#DejaVuSansMono-6c" x="120.410156"/>
      <use xlink:href="#DejaVuSansMono-75" x="180.615234"/>
      <use xlink:href="#DejaVuSansMono-65" x="240.820312"/>
      <use xlink:href="#DejaVuSansMono-3c" x="301.025391"/>
      <use xlink:href="#DejaVuSansMono-31" x="361.230469"/>
      <use xlink:href="#DejaVuSansMono-30" x="421.435547"/>
      <use xlink:href="#DejaVuSansMono-30" x="481.640625"/>
      <use xlink:href="#DejaVuSansMono-30" x="541.845703"/>
      <use xlink:href="#DejaVuSansMono-30" x="602.050781"/>
     </g>
    </g>
   </g>
   <g id="text_9">
    <g id="patch_21">
     <path d="M 113.394964 543.220568 
L 135.763714 543.220568 
L 135.763714 523.623068 
L 113.394964 523.623068 
z
" clip-path="url(#p895ea24d34)" style="fill: #87ceeb; stroke: #000000; stroke-linejoin: miter"/>
    </g>
    <g clip-path="url(#p895ea24d34)">
     <!-- OK -->
     <g transform="translate(117.354964 536.764943) scale(0.12 -0.12)">
      <defs>
       <path id="DejaVuSansMono-4f" d="M 2828 2328 
Q 2828 3356 2617 3797 
Q 2406 4238 1925 4238 
Q 1447 4238 1236 3797 
Q 1025 3356 1025 2328 
Q 1025 1303 1236 862 
Q 1447 422 1925 422 
Q 2406 422 2617 861 
Q 2828 1300 2828 2328 
z
M 3488 2328 
Q 3488 1109 3102 509 
Q 2716 -91 1925 -91 
Q 1134 -91 750 506 
Q 366 1103 366 2328 
Q 366 3550 752 4150 
Q 1138 4750 1925 4750 
Q 2716 4750 3102 4150 
Q 3488 3550 3488 2328 
z
" transform="scale(0.015625)"/>
       <path id="DejaVuSansMono-4b" d="M 428 4666 
L 1063 4666 
L 1063 2591 
L 3034 4666 
L 3775 4666 
L 1959 2759 
L 3828 0 
L 3066 0 
L 1544 2338 
L 1063 1825 
L 1063 0 
L 428 0 
L 428 4666 
z
" transform="scale(0.015625)"/>
      </defs>
      <use xlink:href="#DejaVuSansMono-4f"/>
      <use xlink:href="#DejaVuSansMono-4b" x="60.205078"/>
     </g>
    </g>
   </g>
   <g id="text_10">
    <g id="patch_22">
     <path d="M 219.054635 543.220568 
L 270.320885 543.220568 
L 270.320885 523.623068 
L 219.054635 523.623068 
z
" clip-path="url(#p895ea24d34)" style="fill: #87ceeb; stroke: #000000; stroke-linejoin: miter"/>
    </g>
    <g clip-path="url(#p895ea24d34)">
     <!-- Not OK -->
     <g transform="translate(223.014635 536.764943) scale(0.12 -0.12)">
      <defs>
       <path id="DejaVuSansMono-4e" d="M 434 4666 
L 1234 4666 
L 2809 825 
L 2809 4666 
L 3419 4666 
L 3419 0 
L 2619 0 
L 1044 3841 
L 1044 0 
L 434 0 
L 434 4666 
z
" transform="scale(0.015625)"/>
       <path id="DejaVuSansMono-6f" d="M 1925 3097 
Q 1488 3097 1263 2756 
Q 1038 2416 1038 1747 
Q 1038 1081 1263 739 
Q 1488 397 1925 397 
Q 2366 397 2591 739 
Q 2816 1081 2816 1747 
Q 2816 2416 2591 2756 
Q 2366 3097 1925 3097 
z
M 1925 3584 
Q 2653 3584 3039 3112 
Q 3425 2641 3425 1747 
Q 3425 850 3040 379 
Q 2656 -91 1925 -91 
Q 1197 -91 812 379 
Q 428 850 428 1747 
Q 428 2641 812 3112 
Q 1197 3584 1925 3584 
z
" transform="scale(0.015625)"/>
       <path id="DejaVuSansMono-20" transform="scale(0.015625)"/>
      </defs>
      <use xlink:href="#DejaVuSansMono-4e"/>
      <use xlink:href="#DejaVuSansMono-6f" x="60.205078"/>
      <use xlink:href="#DejaVuSansMono-74" x="120.410156"/>
      <use xlink:href="#DejaVuSansMono-20" x="180.615234"/>
      <use xlink:href="#DejaVuSansMono-4f" x="240.820312"/>
      <use xlink:href="#DejaVuSansMono-4b" x="301.025391"/>
     </g>
    </g>
   </g>
   <g id="text_11">
    <g id="patch_23">
     <path d="M 394.50171 337.03875 
L 481.889835 337.03875 
L 481.889835 317.44125 
L 394.50171 317.44125 
z
" clip-path="url(#p895ea24d34)" style="fill: #87ceeb; stroke: #000000; stroke-linejoin: miter"/>
    </g>
    <g clip-path="url(#p895ea24d34)">
     <!-- value&lt;20000 -->
     <g transform="translate(398.46171 330.583125) scale(0.12 -0.12)">
      <defs>
       <path id="DejaVuSansMono-32" d="M 1166 531 
L 3309 531 
L 3309 0 
L 475 0 
L 475 531 
Q 1059 1147 1496 1619 
Q 1934 2091 2100 2284 
Q 2413 2666 2522 2902 
Q 2631 3138 2631 3384 
Q 2631 3775 2401 3997 
Q 2172 4219 1772 4219 
Q 1488 4219 1175 4116 
Q 863 4013 513 3803 
L 513 4441 
Q 834 4594 1145 4672 
Q 1456 4750 1759 4750 
Q 2444 4750 2861 4386 
Q 3278 4022 3278 3431 
Q 3278 3131 3139 2831 
Q 3000 2531 2688 2169 
Q 2513 1966 2180 1606 
Q 1847 1247 1166 531 
z
" transform="scale(0.015625)"/>
      </defs>
      <use xlink:href="#DejaVuSansMono-76"/>
      <use xlink:href="#DejaVuSansMono-61" x="60.205078"/>
      <use xlink:href="#DejaVuSansMono-6c" x="120.410156"/>
      <use xlink:href="#DejaVuSansMono-75" x="180.615234"/>
      <use xlink:href="#DejaVuSansMono-65" x="240.820312"/>
      <use xlink:href="#DejaVuSansMono-3c" x="301.025391"/>
      <use xlink:href="#DejaVuSansMono-32" x="361.230469"/>
      <use xlink:href="#DejaVuSansMono-30" x="421.435547"/>
      <use xlink:href="#DejaVuSansMono-30" x="481.640625"/>
      <use xlink:href="#DejaVuSansMono-30" x="541.845703"/>
      <use xlink:href="#DejaVuSansMono-30" x="602.050781"/>
     </g>
    </g>
   </g>
   <g id="text_12">
    <g id="patch_24">
     <path d="M 402.989713 543.220568 
L 425.358463 543.220568 
L 425.358463 523.623068 
L 402.989713 523.623068 
z
" clip-path="url(#p895ea24d34)" style="fill: #87ceeb; stroke: #000000; stroke-linejoin: miter"/>
    </g>
    <g clip-path="url(#p895ea24d34)">
     <!-- OK -->
     <g transform="translate(406.949713 536.764943) scale(0.12 -0.12)">
      <use xlink:href="#DejaVuSansMono-4f"/>
      <use xlink:href="#DejaVuSansMono-4b" x="60.205078"/>
     </g>
    </g>
   </g>
   <g id="text_13">
    <g id="patch_25">
     <path d="M 513.987536 543.220568 
L 565.253786 543.220568 
L 565.253786 523.623068 
L 513.987536 523.623068 
z
" clip-path="url(#p895ea24d34)" style="fill: #87ceeb; stroke: #000000; stroke-linejoin: miter"/>
    </g>
    <g clip-path="url(#p895ea24d34)">
     <!-- Not OK -->
     <g transform="translate(517.947536 536.764943) scale(0.12 -0.12)">
      <use xlink:href="#DejaVuSansMono-4e"/>
      <use xlink:href="#DejaVuSansMono-6f" x="60.205078"/>
      <use xlink:href="#DejaVuSansMono-74" x="120.410156"/>
      <use xlink:href="#DejaVuSansMono-20" x="180.615234"/>
      <use xlink:href="#DejaVuSansMono-4f" x="240.820312"/>
      <use xlink:href="#DejaVuSansMono-4b" x="301.025391"/>
     </g>
    </g>
   </g>
  </g>
  <g id="text_14">
   <!-- Should we agree on loan ? -->
   <g transform="translate(244.628438 22.078125) scale(0.12 -0.12)">
    <defs>
     <path id="DejaVuSans-53" d="M 3425 4513 
L 3425 3897 
Q 3066 4069 2747 4153 
Q 2428 4238 2131 4238 
Q 1616 4238 1336 4038 
Q 1056 3838 1056 3469 
Q 1056 3159 1242 3001 
Q 1428 2844 1947 2747 
L 2328 2669 
Q 3034 2534 3370 2195 
Q 3706 1856 3706 1288 
Q 3706 609 3251 259 
Q 2797 -91 1919 -91 
Q 1588 -91 1214 -16 
Q 841 59 441 206 
L 441 856 
Q 825 641 1194 531 
Q 1563 422 1919 422 
Q 2459 422 2753 634 
Q 3047 847 3047 1241 
Q 3047 1584 2836 1778 
Q 2625 1972 2144 2069 
L 1759 2144 
Q 1053 2284 737 2584 
Q 422 2884 422 3419 
Q 422 4038 858 4394 
Q 1294 4750 2059 4750 
Q 2388 4750 2728 4690 
Q 3069 4631 3425 4513 
z
" transform="scale(0.015625)"/>
     <path id="DejaVuSans-68" d="M 3513 2113 
L 3513 0 
L 2938 0 
L 2938 2094 
Q 2938 2591 2744 2837 
Q 2550 3084 2163 3084 
Q 1697 3084 1428 2787 
Q 1159 2491 1159 1978 
L 1159 0 
L 581 0 
L 581 4863 
L 1159 4863 
L 1159 2956 
Q 1366 3272 1645 3428 
Q 1925 3584 2291 3584 
Q 2894 3584 3203 3211 
Q 3513 2838 3513 2113 
z
" transform="scale(0.015625)"/>
     <path id="DejaVuSans-6f" d="M 1959 3097 
Q 1497 3097 1228 2736 
Q 959 2375 959 1747 
Q 959 1119 1226 758 
Q 1494 397 1959 397 
Q 2419 397 2687 759 
Q 2956 1122 2956 1747 
Q 2956 2369 2687 2733 
Q 2419 3097 1959 3097 
z
M 1959 3584 
Q 2709 3584 3137 3096 
Q 3566 2609 3566 1747 
Q 3566 888 3137 398 
Q 2709 -91 1959 -91 
Q 1206 -91 779 398 
Q 353 888 353 1747 
Q 353 2609 779 3096 
Q 1206 3584 1959 3584 
z
" transform="scale(0.015625)"/>
     <path id="DejaVuSans-64" d="M 2906 2969 
L 2906 4863 
L 3481 4863 
L 3481 0 
L 2906 0 
L 2906 525 
Q 2725 213 2448 61 
Q 2172 -91 1784 -91 
Q 1150 -91 751 415 
Q 353 922 353 1747 
Q 353 2572 751 3078 
Q 1150 3584 1784 3584 
Q 2172 3584 2448 3432 
Q 2725 3281 2906 2969 
z
M 947 1747 
Q 947 1113 1208 752 
Q 1469 391 1925 391 
Q 2381 391 2643 752 
Q 2906 1113 2906 1747 
Q 2906 2381 2643 2742 
Q 2381 3103 1925 3103 
Q 1469 3103 1208 2742 
Q 947 2381 947 1747 
z
" transform="scale(0.015625)"/>
     <path id="DejaVuSans-20" transform="scale(0.015625)"/>
     <path id="DejaVuSans-77" d="M 269 3500 
L 844 3500 
L 1563 769 
L 2278 3500 
L 2956 3500 
L 3675 769 
L 4391 3500 
L 4966 3500 
L 4050 0 
L 3372 0 
L 2619 2869 
L 1863 0 
L 1184 0 
L 269 3500 
z
" transform="scale(0.015625)"/>
     <path id="DejaVuSans-67" d="M 2906 1791 
Q 2906 2416 2648 2759 
Q 2391 3103 1925 3103 
Q 1463 3103 1205 2759 
Q 947 2416 947 1791 
Q 947 1169 1205 825 
Q 1463 481 1925 481 
Q 2391 481 2648 825 
Q 2906 1169 2906 1791 
z
M 3481 434 
Q 3481 -459 3084 -895 
Q 2688 -1331 1869 -1331 
Q 1566 -1331 1297 -1286 
Q 1028 -1241 775 -1147 
L 775 -588 
Q 1028 -725 1275 -790 
Q 1522 -856 1778 -856 
Q 2344 -856 2625 -561 
Q 2906 -266 2906 331 
L 2906 616 
Q 2728 306 2450 153 
Q 2172 0 1784 0 
Q 1141 0 747 490 
Q 353 981 353 1791 
Q 353 2603 747 3093 
Q 1141 3584 1784 3584 
Q 2172 3584 2450 3431 
Q 2728 3278 2906 2969 
L 2906 3500 
L 3481 3500 
L 3481 434 
z
" transform="scale(0.015625)"/>
     <path id="DejaVuSans-6e" d="M 3513 2113 
L 3513 0 
L 2938 0 
L 2938 2094 
Q 2938 2591 2744 2837 
Q 2550 3084 2163 3084 
Q 1697 3084 1428 2787 
Q 1159 2491 1159 1978 
L 1159 0 
L 581 0 
L 581 3500 
L 1159 3500 
L 1159 2956 
Q 1366 3272 1645 3428 
Q 1925 3584 2291 3584 
Q 2894 3584 3203 3211 
Q 3513 2838 3513 2113 
z
" transform="scale(0.015625)"/>
     <path id="DejaVuSans-3f" d="M 1222 794 
L 1856 794 
L 1856 0 
L 1222 0 
L 1222 794 
z
M 1838 1253 
L 1241 1253 
L 1241 1734 
Q 1241 2050 1328 2253 
Q 1416 2456 1697 2725 
L 1978 3003 
Q 2156 3169 2236 3316 
Q 2316 3463 2316 3616 
Q 2316 3894 2111 4066 
Q 1906 4238 1569 4238 
Q 1322 4238 1042 4128 
Q 763 4019 459 3809 
L 459 4397 
Q 753 4575 1054 4662 
Q 1356 4750 1678 4750 
Q 2253 4750 2601 4447 
Q 2950 4144 2950 3647 
Q 2950 3409 2837 3195 
Q 2725 2981 2444 2713 
L 2169 2444 
Q 2022 2297 1961 2214 
Q 1900 2131 1875 2053 
Q 1856 1988 1847 1894 
Q 1838 1800 1838 1638 
L 1838 1253 
z
" transform="scale(0.015625)"/>
    </defs>
    <use xlink:href="#DejaVuSans-53"/>
    <use xlink:href="#DejaVuSans-68" x="63.476562"/>
    <use xlink:href="#DejaVuSans-6f" x="126.855469"/>
    <use xlink:href="#DejaVuSans-75" x="188.037109"/>
    <use xlink:href="#DejaVuSans-6c" x="251.416016"/>
    <use xlink:href="#DejaVuSans-64" x="279.199219"/>
    <use xlink:href="#DejaVuSans-20" x="342.675781"/>
    <use xlink:href="#DejaVuSans-77" x="374.462891"/>
    <use xlink:href="#DejaVuSans-65" x="456.25"/>
    <use xlink:href="#DejaVuSans-20" x="517.773438"/>
    <use xlink:href="#DejaVuSans-61" x="549.560547"/>
    <use xlink:href="#DejaVuSans-67" x="610.839844"/>
    <use xlink:href="#DejaVuSans-72" x="674.316406"/>
    <use xlink:href="#DejaVuSans-65" x="713.179688"/>
    <use xlink:href="#DejaVuSans-65" x="774.703125"/>
    <use xlink:href="#DejaVuSans-20" x="836.226562"/>
    <use xlink:href="#DejaVuSans-6f" x="868.013672"/>
    <use xlink:href="#DejaVuSans-6e" x="929.195312"/>
    <use xlink:href="#DejaVuSans-20" x="992.574219"/>
    <use xlink:href="#DejaVuSans-6c" x="1024.361328"/>
    <use xlink:href="#DejaVuSans-6f" x="1052.144531"/>
    <use xlink:href="#DejaVuSans-61" x="1113.326172"/>
    <use xlink:href="#DejaVuSans-6e" x="1174.605469"/>
    <use xlink:href="#DejaVuSans-20" x="1237.984375"/>
    <use xlink:href="#DejaVuSans-3f" x="1269.771484"/>
   </g>
  </g>
 </g>
 <defs>
  <clipPath id="p895ea24d34">
   <rect x="81" y="77.76" width="502.2" height="498.96"/>
  </clipPath>
 </defs>
</svg>
